<?xml version="1.0" standalone="no"?>
<!DOCTYPE svg PUBLIC "-//W3C//DTD SVG 20010904//EN"
 "http://www.w3.org/TR/2001/REC-SVG-20010904/DTD/svg10.dtd">
<svg version="1.0" xmlns="http://www.w3.org/2000/svg"
 width="1408.000000pt" height="768.000000pt" viewBox="0 0 1408.000000 768.000000"
 preserveAspectRatio="xMidYMid meet">

<g transform="translate(0.000000,768.000000) scale(0.100000,-0.100000)"
fill="#000000" stroke="none">
<path d="M0 3840 l0 -3840 2889 0 c2625 0 2889 1 2895 16 3 9 6 24 6 35 0 27
37 131 75 214 54 116 66 147 59 167 -3 10 -9 18 -13 18 -3 0 -15 14 -25 30 -9
17 -21 28 -25 26 -4 -3 -13 -1 -20 4 -8 5 -31 2 -54 -6 -21 -8 -43 -11 -48 -8
-5 3 -9 0 -9 -5 0 -6 -3 -10 -7 -9 -5 0 -33 -10 -63 -24 -30 -14 -72 -31 -92
-37 -21 -7 -40 -17 -43 -22 -10 -15 -77 -10 -96 7 -17 15 -17 18 14 64 33 49
80 109 110 141 9 10 17 22 17 25 0 3 16 22 35 41 20 20 34 42 31 49 -3 8 -1
14 5 14 6 0 7 5 4 10 -3 6 0 10 8 10 7 0 24 12 38 26 21 23 133 98 148 100 3
0 18 6 33 14 22 10 30 11 43 0 18 -15 20 -51 3 -69 -11 -11 -10 -12 2 -6 8 5
4 -4 -9 -19 -34 -37 -19 -47 70 -48 138 0 289 21 356 48 24 10 78 17 148 20
122 3 137 5 244 27 41 8 81 13 90 10 9 -3 -40 48 -109 113 -69 65 -197 188
-285 272 -149 143 -229 213 -211 184 9 -16 -14 -16 -51 0 -15 7 -32 12 -38 13
-22 1 -75 28 -75 38 0 6 -3 8 -6 5 -6 -7 -54 39 -54 52 0 4 -8 7 -17 6 -10 -2
-27 3 -38 10 -11 6 -34 15 -52 19 -17 3 -37 13 -44 21 -6 8 -18 14 -26 14 -9
0 -42 13 -74 30 -33 16 -61 30 -64 30 -3 0 -10 0 -16 0 -5 0 -8 4 -5 8 6 10
-47 52 -64 52 -5 0 -10 4 -10 9 0 13 -62 71 -76 71 -6 0 -15 7 -18 16 -3 8
-11 12 -17 8 -7 -4 -9 -3 -6 3 7 11 -28 53 -44 53 -5 0 -15 13 -20 30 -6 16
-15 28 -19 25 -10 -6 -70 49 -70 64 0 5 -13 14 -30 20 -16 5 -30 8 -30 5 0 -3
-12 4 -27 16 -16 12 -29 17 -31 11 -5 -16 -22 -13 -22 4 0 8 -9 15 -19 15 -10
0 -21 7 -25 15 -3 8 -17 15 -31 15 -14 0 -25 5 -25 11 0 5 -4 7 -10 4 -5 -3
-10 -1 -10 6 0 10 -3 10 -11 2 -14 -14 -38 -6 -61 20 -10 11 -24 17 -33 13 -9
-3 -18 1 -22 9 -4 12 -9 13 -19 4 -9 -7 -14 -8 -14 -1 0 5 -16 16 -35 24 l-36
14 21 19 c14 12 24 15 28 9 9 -14 66 -28 57 -14 -4 7 3 6 22 -1 35 -13 123
-21 123 -11 0 12 44 10 52 -2 5 -8 8 -8 8 0 0 6 11 12 25 12 14 0 25 -5 25
-11 0 -5 8 -1 18 11 13 15 22 18 35 11 13 -8 15 -7 10 7 -5 14 -3 16 12 10 11
-4 22 -2 26 6 6 9 11 9 23 -1 12 -10 16 -10 16 -2 0 7 4 9 10 6 6 -3 10 -3 10
1 0 10 -69 82 -460 482 -184 189 -337 350 -338 358 -2 9 16 1 45 -20 57 -41
129 -105 93 -82 -82 53 -15 -23 305 -344 221 -221 367 -360 379 -360 18 0 18
1 1 20 -10 11 -23 17 -29 13 -6 -3 -8 -3 -4 2 4 4 3 14 -4 22 -6 8 -13 25 -14
38 -3 32 -126 170 -187 210 -15 9 -27 21 -27 27 0 14 40 -11 94 -61 28 -25 7
1 -47 58 -129 137 -164 192 -45 71 138 -140 178 -175 246 -209 37 -19 67 -42
76 -59 25 -46 112 -131 150 -147 20 -9 36 -12 36 -8 0 5 4 2 8 -4 10 -15 64
-19 113 -9 32 7 41 4 75 -25 l39 -33 -30 33 c-35 39 -100 85 -133 96 -44 13
-188 102 -267 164 -44 34 -105 81 -135 104 -30 23 -86 69 -125 102 -98 85
-126 105 -136 100 -9 -6 -179 184 -179 200 1 5 27 -18 58 -51 31 -34 80 -76
107 -94 28 -18 54 -38 58 -46 14 -25 92 -72 117 -72 14 1 38 -2 55 -5 16 -4
32 -2 36 4 3 6 14 -2 24 -18 l18 -28 -21 19 c-12 11 -22 14 -22 9 0 -16 28
-36 40 -28 6 4 63 -42 127 -102 206 -192 376 -337 372 -316 -5 22 38 83 59 83
12 0 91 -82 182 -190 199 -234 238 -278 280 -320 26 -25 49 -53 53 -63 4 -10
11 -16 16 -13 5 4 19 -6 31 -21 33 -43 -31 83 -111 217 -61 103 -76 122 -149
178 -90 71 -333 302 -325 310 2 3 13 -1 22 -9 16 -12 15 -11 -1 8 -10 13 -22
20 -26 18 -7 -4 -120 82 -120 92 0 8 37 -17 73 -49 29 -27 43 -34 67 -30 33 5
39 19 13 29 -10 4 -34 16 -53 27 -19 11 -39 21 -45 21 -13 0 -45 24 -69 52
-15 19 -16 24 -4 35 19 18 40 21 48 8 9 -15 171 -81 190 -78 8 1 21 -1 28 -5
20 -13 14 4 -47 119 l-58 112 41 -6 c23 -2 49 -9 59 -14 17 -9 17 -11 3 -27
-11 -12 -13 -20 -5 -28 8 -8 8 -16 0 -30 -11 -17 -11 -16 -9 4 2 12 -1 23 -7
23 -5 1 -16 6 -23 12 -9 8 -11 6 -5 -8 14 -33 61 -119 155 -287 50 -89 126
-227 169 -307 104 -195 291 -510 300 -505 3 3 18 -4 32 -15 l26 -21 11 43 c6
24 22 84 36 134 13 51 24 108 24 128 0 45 -19 124 -32 132 -5 3 -21 -6 -35
-20 -14 -14 -29 -26 -33 -26 -17 0 -70 149 -70 197 0 13 7 26 15 29 8 4 12 11
8 18 -25 38 -2 48 24 10 37 -53 75 -94 88 -94 7 0 15 -4 17 -10 2 -5 20 -11
41 -14 32 -4 39 -1 52 22 11 18 14 21 11 7 -3 -11 -21 -84 -41 -162 -43 -175
-44 -183 -7 -183 15 0 55 -13 89 -29 35 -17 78 -34 98 -40 30 -8 35 -7 35 7 0
20 -28 77 -96 192 -90 154 -96 190 -10 58 83 -127 187 -226 225 -213 11 3 22
1 26 -5 14 -22 55 -8 104 36 86 77 82 47 -16 -113 -35 -59 -67 -112 -70 -118
-3 -5 14 9 38 32 41 39 142 93 174 93 9 0 15 -10 15 -25 0 -28 -18 -39 -129
-79 -78 -28 -107 -53 -116 -102 -4 -17 -13 -31 -20 -31 -8 0 -11 5 -8 10 4 6
-7 8 -30 4 -34 -5 -37 -4 -47 28 -8 24 -8 40 -1 54 17 31 13 40 -22 55 -55 22
-132 30 -159 14 -12 -7 -52 -13 -88 -13 l-65 0 -18 -57 -19 -57 34 -63 c21
-40 40 -64 53 -66 27 -5 67 -68 73 -117 7 -60 85 -197 108 -188 8 3 14 0 14
-7 0 -6 -4 -8 -10 -5 -5 3 -10 2 -10 -4 0 -5 5 -13 10 -16 6 -4 27 -39 47 -78
44 -89 70 -127 88 -127 7 0 23 9 36 21 13 11 18 18 12 14 -7 -3 -13 -1 -13 4
0 6 7 11 15 11 10 0 13 10 11 35 -2 34 17 57 28 32 2 -7 5 -2 5 11 1 34 28 27
29 -9 0 -17 6 -37 13 -45 10 -13 10 -17 -2 -25 -11 -8 -10 -9 6 -7 14 2 20 -2
19 -14 -1 -10 2 -15 7 -12 5 3 9 0 9 -5 0 -6 4 -11 9 -11 14 0 124 197 117
209 -4 5 -2 12 4 16 6 4 8 11 5 16 -4 5 1 12 9 15 9 3 13 10 10 15 -3 5 1 9 9
9 13 0 72 98 141 236 33 67 34 73 18 86 -9 8 -46 20 -80 27 -85 16 -228 79
-214 93 5 5 48 13 98 19 49 6 107 17 128 24 33 12 42 11 61 -1 16 -10 25 -12
30 -4 3 6 11 8 16 5 17 -11 9 25 -46 220 -30 106 -55 197 -54 201 1 18 42
-107 84 -260 24 -87 46 -160 48 -162 13 -13 61 22 85 62 49 84 53 80 7 -7 -25
-47 -45 -89 -45 -92 0 -23 40 12 194 165 94 95 214 211 266 257 74 65 63 54
-45 -52 -143 -140 -160 -168 -85 -147 18 5 35 8 37 7 7 -7 -78 -80 -94 -82
-10 0 -24 -4 -31 -9 -14 -9 -16 -26 -2 -26 6 0 9 3 9 8 -3 19 2 26 10 13 7
-11 19 -10 67 10 33 13 77 35 99 49 68 45 69 45 61 25 -6 -16 -4 -16 10 -4 9
7 35 14 58 15 41 1 41 1 16 -15 -13 -9 -33 -24 -44 -34 -21 -18 -20 -18 14
-11 19 3 40 11 47 16 8 6 10 4 8 -9 -1 -10 -8 -17 -14 -15 -6 1 -10 -3 -9 -9
2 -6 -13 -20 -32 -31 -19 -11 -39 -27 -45 -35 -6 -8 -20 -13 -30 -11 -12 2
-20 -3 -20 -12 0 -10 -8 -14 -23 -12 -12 2 -25 -3 -28 -11 -7 -18 -130 -80
-144 -72 -5 3 -10 2 -10 -2 0 -5 -28 -23 -62 -40 -35 -18 -78 -44 -97 -58 -33
-23 -91 -35 -91 -17 0 4 9 14 21 22 11 8 28 20 37 26 10 8 16 28 17 57 l1 46
-41 -33 c-54 -44 -137 -167 -95 -141 5 3 10 1 10 -4 0 -6 -6 -11 -14 -11 -19
0 -41 -33 -102 -149 -31 -60 -45 -95 -37 -98 6 -2 10 -15 7 -28 -3 -18 1 -24
18 -27 21 -3 19 -5 -15 -25 -20 -12 -43 -20 -50 -17 -8 3 -20 -2 -27 -11 -12
-14 -12 -16 1 -13 28 6 19 -17 -13 -34 -18 -10 -41 -35 -51 -55 -18 -38 -18
-38 1 -16 11 12 22 19 26 16 3 -4 6 -1 6 5 0 18 17 14 24 -5 4 -9 1 -21 -5
-27 -9 -8 -10 -8 -5 2 10 18 1 15 -15 -5 -10 -11 -10 -14 -1 -9 21 13 13 -7
-15 -38 -23 -25 -20 -23 22 9 46 36 48 37 21 8 l-29 -32 29 8 c16 4 47 4 69
-1 22 -5 54 -7 72 -5 17 3 34 3 38 -1 5 -6 179 -40 212 -41 6 -1 14 7 16 17 4
15 5 15 6 1 0 -9 8 -20 18 -23 15 -6 31 -9 108 -21 17 -2 49 -7 73 -11 37 -6
42 -4 43 12 0 17 1 17 9 -2 7 -18 26 -32 50 -39 53 -14 156 -51 158 -56 7 -17
32 5 33 30 1 23 2 21 9 -9 5 -19 13 -36 19 -38 18 -6 51 -69 45 -86 -3 -9 -1
-16 5 -16 6 0 10 -5 9 -12 -2 -6 17 -17 42 -24 l45 -12 -72 -1 c-71 -1 -71 -1
-82 -33 -8 -22 -14 -29 -19 -21 -6 9 -17 10 -39 4 -17 -5 -34 -7 -37 -4 -2 3
-11 1 -18 -3 -7 -5 -15 -9 -18 -9 -3 -1 -18 -8 -35 -17 -48 -25 -95 -37 -163
-43 -35 -3 -68 -7 -73 -10 -11 -7 -58 -15 -134 -21 -33 -2 -71 -6 -85 -9 -14
-2 -29 -4 -34 -4 -5 -1 -2 -9 5 -18 8 -9 9 -14 3 -10 -13 8 -27 -44 -18 -68 4
-8 -1 -17 -10 -21 -9 -3 -13 -11 -9 -16 3 -6 -17 2 -46 17 -28 16 -51 31 -51
35 0 4 -24 17 -53 29 -44 18 -71 22 -163 20 -60 0 -138 -5 -174 -10 -143 -18
-239 -20 -262 -5 -29 18 -75 25 -207 31 -57 2 -125 8 -152 11 -42 6 -54 3 -99
-25 -27 -17 -54 -31 -59 -31 -7 0 -77 -67 -131 -126 -37 -41 -100 -126 -100
-136 0 -4 1800 -8 4000 -8 l4000 0 0 3840 0 3840 -7040 0 -7040 0 0 -3840z
m7245 3279 c5 -19 2 -28 -9 -32 -18 -7 -32 32 -22 60 8 20 22 8 31 -28z m-65
-75 c0 -8 -4 -12 -10 -9 -5 3 -10 10 -10 16 0 5 5 9 10 9 6 0 10 -7 10 -16z
m702 -109 c0 -5 -5 -11 -11 -13 -6 -2 -11 4 -11 13 0 9 5 15 11 13 6 -2 11 -8
11 -13z m-2012 -94 c0 -6 -4 -13 -10 -16 -5 -3 -10 1 -10 9 0 9 5 16 10 16 6
0 10 -4 10 -9z m-394 -156 c-7 -26 -36 -35 -36 -11 0 16 30 50 37 42 3 -3 3
-17 -1 -31z m2743 -89 c15 -18 3 -46 -20 -46 -25 0 -35 26 -19 45 15 19 24 19
39 1z m331 -40 c0 -8 -4 -18 -10 -21 -5 -3 -10 3 -10 14 0 12 5 21 10 21 6 0
10 -6 10 -14z m866 -53 c-10 -10 -19 5 -10 18 6 11 8 11 12 0 2 -7 1 -15 -2
-18z m1004 -23 c0 -5 -4 -10 -10 -10 -5 0 -10 5 -10 10 0 6 5 10 10 10 6 0 10
-4 10 -10z m-2243 -66 c-3 -3 -12 -4 -19 -1 -8 3 -5 6 6 6 11 1 17 -2 13 -5z
m1290 -36 c-3 -7 -5 -2 -5 12 0 14 2 19 5 13 2 -7 2 -19 0 -25z m-2088 -3
c113 -8 264 -20 335 -25 185 -14 206 -14 207 8 0 14 2 14 8 -3 7 -17 23 -22
122 -31 63 -7 179 -23 259 -37 80 -14 170 -28 200 -32 86 -10 151 -31 262 -85
58 -29 104 -46 108 -41 3 6 6 30 5 53 l0 43 -75 6 -75 5 78 2 77 2 -26 51
c-27 54 -27 78 1 35 10 -14 22 -23 31 -19 10 3 14 -2 14 -18 0 -43 11 -47 127
-50 126 -5 121 -8 124 76 2 33 3 35 6 10 7 -61 14 -80 23 -66 6 11 12 9 26 -8
12 -14 30 -21 54 -21 29 0 44 8 80 45 50 51 64 52 27 3 -43 -59 -43 -58 22
-58 48 0 60 3 64 18 3 10 5 6 6 -11 l1 -27 -69 6 c-63 5 -70 4 -84 -16 -19
-28 -5 -77 27 -90 11 -5 16 -9 10 -9 -21 -2 -10 -32 19 -57 19 -16 39 -24 56
-22 22 3 27 9 32 43 l6 40 2 -42 c1 -33 5 -43 19 -44 61 -2 73 -15 22 -23 -40
-6 -40 -6 -41 -54 l-1 -47 -10 43 c-5 23 -14 42 -20 42 -22 0 -68 -35 -66 -51
2 -9 -3 -23 -10 -32 -16 -18 -5 -22 91 -37 l52 -8 -68 1 c-37 1 -67 1 -67 0 0
-1 21 -14 48 -29 118 -68 253 -172 429 -331 91 -82 206 -192 166 -159 -19 16
-23 17 -23 4 0 -8 9 -27 20 -41 11 -14 20 -28 20 -32 0 -4 10 -15 23 -26 l22
-19 -28 6 c-22 5 -26 3 -21 -9 3 -9 15 -17 27 -19 11 -2 23 -9 25 -17 3 -10 0
-12 -14 -7 -16 6 -17 5 -2 -11 8 -10 18 -25 22 -33 10 -19 -266 261 -336 343
-82 94 -136 165 -108 141 14 -12 35 -25 47 -28 11 -4 46 -32 76 -62 34 -36 60
-55 72 -53 30 6 -203 202 -338 284 -43 26 -82 43 -88 39 -8 -5 -9 -3 -4 6 6
10 4 12 -9 7 -10 -4 -22 -7 -27 -7 -6 0 -7 -4 -4 -10 3 -5 2 -10 -4 -10 -5 0
-9 -16 -8 -37 2 -31 18 -54 108 -157 232 -266 327 -342 619 -498 49 -27 53
-28 35 -7 l-20 22 21 -11 c11 -6 26 -18 34 -26 22 -28 145 -111 158 -108 7 2
25 -6 41 -18 48 -33 55 -23 16 24 -25 30 -46 46 -69 50 -34 7 -56 40 -32 49 6
3 2 8 -9 13 -11 4 -45 23 -74 42 -51 33 -53 36 -32 44 13 4 27 6 32 2 18 -11
8 12 -11 26 -11 8 -20 18 -20 22 0 4 27 -14 59 -40 38 -30 55 -49 48 -54 -8
-5 4 -23 36 -55 26 -26 47 -42 47 -34 0 7 -15 28 -34 47 -19 19 -31 34 -28 34
11 0 84 -67 83 -77 -1 -4 2 -8 7 -8 17 -1 31 -17 25 -30 -3 -8 0 -15 6 -15 6
0 11 -6 11 -12 0 -17 78 -104 90 -101 6 2 9 0 8 -5 -2 -4 12 -28 30 -54 34
-50 34 -67 0 -23 -10 13 -22 24 -26 24 -19 -3 -32 2 -32 12 0 8 6 7 18 -2 9
-7 -3 8 -26 33 -30 32 -51 45 -68 44 l-24 -1 23 -17 c12 -10 29 -18 38 -18 9
0 22 -6 28 -14 9 -11 8 -15 -5 -20 -9 -3 -19 -4 -23 -1 -4 2 -8 -4 -8 -13 0
-17 54 -82 68 -82 4 0 25 -10 46 -22 20 -12 43 -23 50 -24 18 -3 25 29 13 60
-14 38 -13 39 15 33 25 -4 25 -4 8 17 -10 11 -25 26 -33 32 -8 7 -28 24 -43
38 -16 15 -40 34 -53 43 -14 9 -23 18 -20 20 8 9 122 -85 171 -139 73 -82 78
-101 79 -273 1 -128 -2 -154 -17 -180 -10 -16 -15 -21 -11 -10 4 11 9 40 11
65 l4 45 -20 -25 c-33 -40 -83 -170 -87 -222 -3 -44 -10 -56 -90 -148 -48 -55
-88 -100 -90 -100 -2 0 -2 9 -1 19 0 11 4 19 7 18 3 -1 6 3 8 8 5 20 -23 9
-33 -12 -5 -13 -13 -23 -18 -23 -4 0 -5 5 -2 10 3 6 1 10 -5 10 -7 0 -14 -9
-17 -19 -3 -11 -11 -22 -18 -25 -8 -3 -11 -13 -8 -25 7 -26 11 -26 34 1 11 11
21 19 24 16 8 -7 -166 -179 -175 -173 -4 3 -14 -3 -21 -13 -13 -16 -12 -16 6
-2 11 8 -2 -9 -30 -38 -27 -28 -51 -52 -52 -52 -1 0 10 21 23 46 13 25 22 49
19 54 -3 5 -1 11 5 15 5 3 10 11 10 18 0 6 -42 -29 -92 -79 -110 -107 -158
-144 -73 -56 33 34 57 62 54 62 -10 0 205 215 216 216 6 1 17 2 25 3 13 1 13
3 0 12 -13 9 -13 10 2 6 19 -7 43 17 33 33 -3 5 2 10 12 11 10 0 13 3 7 5 -18
8 -117 -34 -183 -76 -34 -22 -88 -54 -119 -70 -63 -33 -122 -75 -87 -63 11 3
31 13 45 21 25 14 25 14 4 -4 -12 -11 -63 -54 -115 -97 -52 -42 -116 -96 -144
-120 -47 -40 -48 -40 -27 -10 13 18 27 35 32 38 6 4 10 10 10 14 0 5 -42 -34
-92 -86 -51 -52 -129 -123 -173 -158 -44 -34 -129 -110 -190 -168 -60 -58
-111 -105 -112 -104 -1 2 -3 86 -4 188 -3 178 -2 187 19 214 23 29 29 51 12
40 -6 -4 -10 5 -10 20 0 25 -1 25 -57 21 -65 -4 -114 -22 -293 -104 -97 -45
-125 -62 -125 -77 0 -14 -9 -21 -35 -26 -19 -4 -38 -5 -43 -2 -4 2 -24 -5 -44
-17 -19 -11 -37 -19 -39 -17 -12 11 23 71 54 92 l35 24 -34 -1 c-79 -3 -239 5
-239 12 0 3 55 7 123 7 132 0 227 16 227 39 0 8 5 14 10 14 6 0 10 -5 10 -10
0 -15 46 -2 123 37 53 26 67 38 63 51 -4 13 4 22 34 35 41 18 55 33 20 22 -12
-4 -20 -2 -20 5 0 6 5 8 10 5 9 -6 14 7 11 30 -1 6 5 2 13 -8 10 -13 15 -14
23 -5 19 25 24 38 14 38 -6 0 -11 -7 -11 -15 0 -17 -16 -21 -22 -5 -5 15 -251
17 -256 2 -2 -7 -8 -12 -13 -12 -6 0 -8 4 -5 9 6 9 -7 13 -85 25 -35 6 -51 2
-234 -61 l-80 -28 -3 -50 c-2 -27 -8 -62 -13 -77 -6 -15 -8 -32 -4 -37 4 -8
-43 -11 -152 -11 -142 -1 -155 -2 -128 -15 40 -18 20 -18 -30 0 -61 22 -114
19 -136 -7 -11 -11 -19 -25 -19 -30 0 -5 -9 -21 -20 -36 -11 -15 -21 -36 -23
-47 -1 -11 -6 -26 -10 -32 -5 -8 -3 -13 5 -14 9 0 10 -2 1 -5 -7 -3 -9 -12 -6
-20 3 -8 0 -14 -6 -14 -6 0 -8 -6 -5 -14 3 -8 -3 -19 -15 -26 -23 -12 -28 -46
-8 -53 6 -2 0 -4 -16 -4 -15 0 -30 3 -33 8 -3 5 3 6 12 2 12 -4 15 -2 12 8 -3
8 -13 13 -23 12 -10 -1 -25 6 -34 15 -15 15 -15 15 1 9 28 -10 29 7 1 37 -23
25 -26 26 -42 12 -13 -12 -20 -13 -29 -4 -8 8 -15 8 -27 -2 -8 -7 -18 -10 -22
-7 -3 4 -21 -3 -39 -14 -19 -11 -38 -18 -43 -15 -5 4 -11 2 -13 -4 -1 -5 -19
-12 -38 -15 -34 -4 -58 -10 -145 -35 -22 -7 -52 -14 -68 -17 -15 -3 -30 -9
-33 -14 -3 -5 -18 -9 -34 -9 -19 0 -30 -6 -32 -17 -2 -10 -16 27 -32 82 -32
119 -41 137 -56 115 -7 -12 -10 -8 -10 15 0 29 -2 31 -77 47 -75 17 -233 46
-468 87 -60 10 -96 19 -80 20 27 1 190 -23 430 -63 44 -8 107 -21 139 -31 76
-21 111 -10 103 33 -5 27 6 62 17 51 3 -3 6 -19 8 -37 1 -18 7 -32 14 -32 35
0 104 14 104 21 0 5 -7 6 -15 3 -9 -4 -15 0 -15 10 0 9 4 16 10 16 5 0 7 6 4
14 -3 8 -1 17 5 21 12 7 34 -41 25 -56 -8 -13 41 -11 137 5 46 8 136 22 199
32 63 9 126 18 140 20 14 2 130 4 258 4 l232 1 0 52 c0 86 5 84 -182 64 -90
-10 -219 -20 -288 -23 -155 -7 -163 -8 -175 -35 -15 -34 -32 -34 -40 -1 -7 33
-5 32 -182 48 -58 5 -73 4 -74 -7 -1 -8 -2 -18 -4 -24 -1 -5 -3 -21 -4 -35 -2
-14 -5 -20 -7 -13 -3 7 -12 9 -20 6 -14 -5 -18 9 -15 53 2 18 -6 22 -59 31
l-61 10 6 -26 c8 -30 8 -31 6 -53 -2 -29 -21 -20 -21 10 0 43 -10 70 -28 74
-10 3 -51 1 -92 -3 -257 -28 -487 -49 -542 -49 l-64 0 1 -40 c0 -22 5 -41 10
-42 6 -1 -48 -4 -120 -7 l-130 -6 -165 -115 c-275 -190 -292 -201 -294 -198
-22 28 -114 217 -107 220 4 1 12 14 16 28 l7 25 -20 -23 c-17 -19 -21 -20 -26
-7 -3 9 -2 13 4 10 6 -3 10 2 10 12 0 10 9 24 20 31 12 7 20 8 20 2 0 -5 -5
-10 -11 -10 -18 0 8 -27 32 -33 17 -5 18 -3 7 11 -11 14 -10 15 5 9 26 -10 41
1 26 19 -9 11 -7 14 12 14 13 0 56 4 94 9 39 6 126 11 195 12 69 1 115 4 102
6 -22 4 -46 35 -35 46 3 4 0 9 -8 11 -8 3 -27 11 -44 17 -16 7 -37 13 -45 14
-8 1 -40 7 -70 14 -100 22 -102 22 -95 10 5 -8 1 -9 -13 -5 -15 5 -24 1 -32
-14 -6 -11 -7 -20 -3 -20 4 0 2 -5 -4 -11 -6 -6 -9 -18 -6 -27 4 -10 2 -13 -5
-8 -7 4 -12 2 -12 -3 0 -6 -4 -11 -10 -11 -5 0 -10 9 -10 20 0 11 -5 20 -11
20 -5 0 -8 -4 -5 -9 11 -17 -13 -61 -33 -61 -16 0 -21 12 -32 70 -10 58 -15
68 -26 58 -11 -9 -11 -13 -1 -20 10 -6 11 -10 0 -16 -8 -5 -11 -22 -8 -45 5
-36 4 -37 -25 -37 -20 0 -28 -4 -23 -11 9 -16 -23 -7 -242 61 -264 83 -397
117 -402 102 -2 -7 -8 -12 -14 -12 -6 0 -8 7 -4 15 3 8 1 15 -5 15 -6 0 -58 7
-117 15 -59 8 -168 22 -242 30 -74 9 -151 18 -170 21 -34 6 -30 1 90 -122 122
-126 92 -104 -63 46 -42 41 -81 74 -85 73 -4 0 -14 3 -22 8 -8 4 -10 9 -4 9 5
0 15 -5 22 -12 8 -8 12 -9 12 -1 0 14 -97 74 -125 78 -31 3 -47 14 -39 27 4 7
2 8 -5 4 -14 -9 -74 32 -66 45 4 5 -2 6 -11 2 -11 -4 -15 -3 -10 5 3 6 1 14
-5 18 -8 4 -9 3 -5 -4 8 -13 -6 -16 -18 -5 -4 4 -20 8 -36 9 -36 2 -70 32 -50
44 18 11 -94 68 -178 91 -104 28 -95 7 69 -157 79 -79 141 -144 138 -144 -8 0
-311 308 -363 369 -45 54 -59 80 -33 65 9 -6 9 -5 0 7 -7 8 -20 53 -29 100
-17 84 -65 177 -77 147 -6 -14 -12 154 -7 212 1 19 8 39 16 43 8 5 12 13 9 18
-4 5 -11 7 -16 4 -5 -4 -4 5 2 19 7 14 48 53 93 88 44 34 104 83 131 108 59
54 112 94 139 104 19 7 19 6 2 -13 -10 -11 -22 -18 -26 -16 -4 3 -13 -2 -20
-10 -9 -11 -9 -15 -1 -15 7 0 9 -4 6 -10 -3 -5 -11 -10 -16 -10 -6 0 -7 5 -4
10 3 6 3 10 -2 10 -9 -1 -49 -30 -42 -31 2 0 13 -2 25 -4 15 -3 39 14 87 60
70 68 85 78 67 46 -7 -14 -7 -22 0 -26 8 -5 7 -11 -1 -21 -15 -19 1 -19 47 1
35 14 37 10 11 -23 -6 -8 -11 -26 -12 -42 -2 -34 -143 -192 -159 -178 -6 4
-23 17 -38 28 -16 13 -25 27 -21 35 8 24 -15 17 -39 -10 -23 -26 -38 -32 -38
-15 0 6 7 10 15 10 8 0 15 5 15 10 0 6 -5 10 -11 10 -7 0 -5 9 4 24 16 24 13
36 -9 36 -8 0 -11 -6 -8 -15 4 -8 1 -15 -6 -15 -6 0 -8 5 -5 10 11 18 -1 11
-21 -12 -15 -19 -16 -20 -1 -9 11 9 17 10 17 2 0 -6 -11 -13 -25 -17 -13 -3
-30 -13 -37 -22 -11 -13 -11 -14 2 -7 13 8 13 6 1 -8 -7 -9 -16 -15 -20 -12
-4 2 -20 -8 -36 -23 -16 -15 -33 -27 -37 -27 -12 0 -11 -19 1 -23 6 -2 11 1
11 7 0 6 7 11 16 11 8 0 12 4 9 10 -3 5 0 7 8 4 8 -3 21 2 30 10 20 21 24 20
30 -6 4 -13 1 -26 -6 -30 -9 -6 -9 -8 1 -8 8 0 10 -5 5 -12 -11 -18 -11 -92 1
-100 14 -10 -7 -32 -67 -69 -29 -18 -54 -34 -56 -36 -2 -1 8 -21 23 -43 14
-22 26 -43 26 -48 0 -5 10 -17 21 -28 21 -19 22 -19 15 3 -5 17 1 29 29 55 38
34 73 57 89 58 15 0 -25 -39 -45 -45 -10 -4 -18 -11 -16 -17 1 -6 -6 -12 -16
-13 -22 -4 -36 -15 -19 -15 7 0 9 -13 7 -34 -5 -40 9 -54 177 -170 117 -81
134 -88 275 -116 100 -20 114 -21 127 -7 18 18 11 26 -79 82 -33 21 -77 51
-97 67 -21 16 -42 27 -48 23 -16 -10 -2 -25 17 -18 10 4 14 2 10 -4 -8 -12 17
-36 26 -26 4 3 7 2 7 -4 0 -5 12 -15 26 -22 15 -6 24 -14 22 -16 -6 -6 -73 24
-147 67 -43 24 -55 28 -62 17 -7 -12 -9 -11 -10 1 -1 8 -1 18 0 22 0 4 -20 -2
-45 -14 -39 -17 -50 -18 -70 -8 -38 21 -85 72 -80 87 3 7 1 13 -4 13 -6 0 -10
-6 -11 -12 0 -7 -5 -2 -10 11 -8 19 -5 29 13 50 33 37 41 41 55 29 9 -8 13 -7
13 2 0 8 3 10 6 7 4 -4 -1 -18 -10 -32 -17 -25 -16 -25 3 -13 16 10 23 9 39
-5 21 -19 67 -23 78 -5 5 7 11 5 21 -7 12 -18 13 -18 13 3 0 12 5 22 11 22 5
0 9 8 8 18 -4 20 18 62 31 62 6 0 6 -10 0 -26 -13 -33 -13 -34 5 -28 17 7 21
-21 5 -31 -5 -3 -15 -16 -21 -28 -12 -22 -12 -22 10 -2 l22 19 -10 -27 c-10
-25 -9 -26 14 -17 16 6 27 6 31 -2 4 -6 27 -8 63 -4 40 5 68 2 92 -8 34 -14
97 -75 130 -126 20 -30 37 -20 21 13 -6 12 -15 36 -20 52 -6 19 -15 29 -26 29
-18 -2 -60 48 -71 85 -10 32 -63 115 -109 170 -65 77 -23 91 94 31 57 -28 80
-36 93 -28 10 5 15 15 11 21 -3 7 2 3 10 -7 21 -26 32 -13 18 19 -17 38 -16
68 4 61 9 -3 12 -2 9 5 -18 29 34 105 64 94 13 -5 14 -4 4 6 -16 16 -17 29 -3
29 26 0 51 41 62 99 12 64 22 78 26 36 2 -28 17 -49 161 -224 87 -106 95 -113
105 -92 5 12 24 29 43 37 18 9 33 23 33 30 0 19 19 18 26 -1 4 -8 9 -13 13
-11 14 9 28 -10 37 -48 l9 -39 155 161 c85 89 157 162 160 162 7 0 109 -204
141 -283 20 -50 21 -60 9 -67 -58 -33 -59 -13 9 -296 34 -142 71 -295 82 -339
11 -44 21 -92 21 -107 1 -19 6 -28 17 -28 21 1 91 17 97 23 3 3 22 50 43 105
26 67 34 99 25 95 -10 -3 -12 0 -8 10 3 9 11 14 17 11 18 -6 126 275 277 722
l54 160 -188 351 c-103 193 -193 357 -201 363 -10 9 -23 9 -47 2 -18 -6 -93
-29 -165 -52 l-133 -41 0 -54 c0 -43 -3 -53 -14 -49 -15 6 -30 -5 -102 -74
-38 -36 -48 -41 -64 -32 -11 6 -20 7 -20 3 0 -4 -20 -16 -45 -26 -25 -11 -45
-23 -45 -29 0 -5 5 -6 12 -2 6 4 8 3 5 -3 -4 -6 43 -82 103 -168 61 -87 110
-161 110 -165 0 -7 -167 -79 -288 -124 -54 -20 -112 -21 -112 -2 0 17 76 96
91 96 14 0 33 20 42 43 4 10 11 15 17 12 6 -3 7 1 4 9 -4 11 0 16 11 16 9 0
23 6 31 14 16 17 19 30 3 21 -6 -4 -5 2 3 14 7 12 18 21 25 21 7 0 13 7 13 15
0 18 17 20 22 3 3 -8 7 -6 11 5 4 11 -17 48 -65 114 -40 54 -73 99 -74 101 -1
2 -60 -26 -132 -62 -71 -36 -136 -66 -144 -66 -8 0 -18 -4 -24 -9 -15 -14 -64
-22 -64 -11 0 6 -5 8 -11 4 -8 -5 -8 -9 1 -14 9 -6 6 -11 -10 -20 -15 -8 -20
-8 -16 -1 5 7 -2 11 -18 11 -21 0 -26 -6 -32 -37 -12 -63 -23 -9 -17 78 8 115
-3 111 -149 -49 -136 -150 -157 -176 -110 -142 18 13 34 32 38 42 8 27 18 22
37 -17 9 -19 13 -35 8 -35 -4 0 -11 -30 -14 -67 -12 -127 -38 -243 -55 -243
-11 0 -42 66 -42 90 0 11 -6 20 -13 20 -16 0 -37 42 -37 74 0 41 -25 36 -75
-14 -32 -32 -45 -53 -40 -62 5 -7 4 -10 0 -5 -11 10 -46 -23 -38 -36 3 -5 2
-7 -4 -4 -5 3 -30 -14 -54 -39 -38 -39 -42 -46 -27 -55 14 -8 15 -14 6 -40 -6
-16 -12 -28 -14 -26 -3 2 0 16 5 31 7 17 7 26 1 26 -18 0 -25 -5 -26 -18 -3
-17 -25 -44 -32 -37 -3 2 1 13 9 22 12 16 11 15 -8 -1 -13 -10 -20 -24 -16
-30 3 -6 2 -8 -2 -3 -5 4 -19 -3 -32 -15 -12 -12 -25 -19 -28 -16 -3 2 49 60
115 128 105 108 144 156 110 135 -6 -3 -7 1 -3 10 5 13 7 14 14 3 5 -7 9 -10
9 -5 0 4 -1 8 -2 10 -1 1 4 12 11 25 17 31 2 27 -38 -9 -24 -24 -35 -29 -41
-19 -4 7 -13 9 -19 6 -6 -4 -11 -4 -11 -1 0 11 86 118 124 154 37 36 48 32 21
-6 -14 -20 -14 -23 1 -31 16 -9 15 -12 -4 -37 -12 -15 -19 -32 -16 -37 3 -5 0
-17 -7 -26 -29 -41 151 150 193 204 25 32 77 95 116 138 39 44 68 84 65 89 -3
6 -1 7 6 3 6 -4 14 -1 17 8 3 8 31 34 62 57 32 24 53 35 49 26 -4 -11 -1 -17
8 -17 8 0 15 4 15 8 0 10 58 28 200 63 120 29 706 214 720 226 3 3 -12 2 -32
-2 -21 -4 -38 -5 -38 -3 0 19 44 88 56 88 23 0 8 17 -41 45 -41 24 -46 25 -67
11 -28 -18 -102 -46 -142 -53 l-28 -5 23 34 c12 18 35 49 50 69 l28 35 -43 25
c-42 26 -57 24 -64 -11 -2 -8 -34 -46 -72 -83 -39 -38 -70 -73 -70 -78 0 -24
-55 -63 -111 -79 -37 -11 -42 -1 -20 37 10 16 22 45 26 64 7 33 7 34 -12 17
-11 -10 -26 -18 -34 -18 -9 0 -35 -17 -60 -37 -34 -29 -22 -12 51 77 52 63
102 124 110 135 14 20 14 20 -7 1 -21 -18 -22 -18 -20 2 1 15 14 26 44 37 24
9 43 21 43 26 0 9 -31 -1 -80 -26 -17 -9 -30 -13 -30 -11 0 12 163 86 173 79
7 -3 9 -3 5 2 -7 8 54 45 307 189 98 56 122 65 220 84 108 21 220 37 180 26
-11 -3 -29 -14 -40 -24 -36 -31 -58 -39 -70 -25 -11 14 -89 9 -80 -6 3 -4 13
-5 22 -2 10 4 14 2 10 -4 -4 -6 4 -9 23 -7 16 2 32 -1 35 -6 3 -6 41 -10 83
-10 78 0 290 -35 305 -50 5 -4 -14 -11 -43 -15 -37 -5 -50 -11 -46 -21 9 -23
-15 -27 -35 -5 -14 14 -33 21 -62 22 -63 2 -78 5 -125 24 -42 17 -51 17 -190
1 -80 -10 -149 -19 -153 -22 -12 -7 2 -44 17 -44 18 0 18 -11 0 -36 -13 -16
-18 -17 -35 -6 -13 7 -21 8 -21 2 0 -5 6 -10 13 -11 6 0 -1 -7 -18 -14 l-30
-14 33 -1 c19 0 32 5 33 13 0 10 2 10 6 0 7 -20 20 -15 28 10 4 13 8 17 11 10
4 -9 11 -10 25 -3 12 7 19 7 19 1 0 -5 13 -12 29 -16 18 -4 28 -11 25 -18 -3
-8 23 -18 76 -29 44 -9 112 -31 150 -49 75 -34 69 -34 195 4 112 33 215 82
215 101 0 9 -7 16 -15 16 -8 0 -15 2 -15 4 0 2 -3 11 -6 20 -9 24 39 21 61 -4
10 -11 14 -20 10 -20 -5 0 -4 -5 1 -10 17 -17 331 -52 336 -38 2 4 39 -26 82
-66 l80 -73 -50 -11 c-27 -6 -96 -16 -154 -22 -126 -13 -152 -19 -144 -31 7
-12 133 -95 154 -101 14 -5 154 86 193 125 10 10 22 15 27 12 6 -4 10 1 10 9
0 12 11 15 54 13 30 -1 52 -5 50 -8 -2 -4 3 -9 11 -13 8 -3 15 0 15 7 0 7 6 3
12 -7 8 -15 8 -21 0 -24 -7 -2 -12 -8 -12 -13 0 -6 6 -7 13 -4 6 4 3 0 -7 -9
-16 -13 -17 -18 -5 -32 18 -22 20 -44 3 -37 -8 3 -14 9 -14 14 0 5 -6 9 -12 9
-7 0 8 -19 32 -42 25 -24 66 -66 92 -95 25 -29 67 -70 93 -93 54 -47 56 -46
137 31 29 29 43 44 31 34 -23 -18 -27 -15 -23 19 2 24 27 49 40 41 5 -3 10 -1
10 5 0 6 4 9 9 6 5 -3 15 2 22 11 10 12 10 14 2 9 -15 -8 -17 3 -4 22 4 7 13
12 18 10 6 -2 11 2 12 7 0 6 -7 10 -17 11 -34 2 -36 4 -16 19 13 10 14 14 5
15 -11 0 -11 3 -1 15 9 10 9 15 1 15 -6 0 -11 10 -11 23 0 12 -8 31 -18 42
-25 30 -64 61 -62 50 5 -25 -1 -45 -15 -45 -8 0 -15 5 -15 10 0 12 -45 57 -61
62 -6 2 -11 18 -11 36 -1 17 -5 32 -10 32 -13 0 -10 28 7 60 14 26 14 29 0 24
-9 -4 -15 0 -15 9 0 11 -6 13 -22 9 -17 -4 -20 -2 -15 12 4 9 3 15 -2 12 -5
-3 -20 8 -34 25 -14 18 -36 31 -53 33 -16 2 -29 5 -29 6 0 1 -9 3 -19 5 -10 2
-22 9 -26 16 -4 6 -13 9 -19 5 -7 -5 -8 -1 -4 11 6 15 4 16 -9 5 -13 -10 -18
-10 -24 -1 -4 7 -3 9 3 6 6 -4 13 2 16 13 4 17 2 18 -14 9 -10 -5 -19 -8 -19
-5 0 2 46 32 103 65 56 34 113 71 127 81 l25 20 -70 1 c-70 2 -70 2 -20 9 88
12 222 10 434 -5z m1446 5 c3 -6 -1 -7 -9 -4 -18 7 -21 14 -7 14 6 0 13 -4 16
-10z m-1938 -16 c-3 -3 -12 -4 -19 -1 -8 3 -5 6 6 6 11 1 17 -2 13 -5z m-425
-31 c-22 -4 -23 -5 -5 -18 17 -13 17 -14 -1 -34 -11 -12 -31 -21 -46 -21 -32
0 -122 29 -131 42 -8 12 -149 -1 -149 -13 0 -5 9 -9 21 -9 12 0 17 -4 13 -11
-3 -6 6 -22 22 -36 l29 -24 -30 18 c-16 10 -32 20 -35 23 -18 19 -64 40 -92
41 -50 2 -18 8 157 28 141 16 310 26 247 14z m-479 -50 c-7 -2 -19 -2 -25 0
-7 3 -2 5 12 5 14 0 19 -2 13 -5z m-70 -10 c-7 -2 -19 -2 -25 0 -7 3 -2 5 12
5 14 0 19 -2 13 -5z m-66 -9 c-3 -3 -12 -4 -19 -1 -8 3 -5 6 6 6 11 1 17 -2
13 -5z m4083 -4 c0 -5 -2 -10 -4 -10 -3 0 -8 5 -11 10 -3 6 -1 10 4 10 6 0 11
-4 11 -10z m-4127 -7 c-7 -2 -21 -2 -30 0 -10 3 -4 5 12 5 17 0 24 -2 18 -5z
m362 -33 c3 -6 -1 -7 -9 -4 -18 7 -21 14 -7 14 6 0 13 -4 16 -10z m-3015 -34
c7 -9 9 -16 6 -16 -15 0 -44 20 -50 35 -4 12 -2 13 13 6 10 -6 23 -17 31 -25z
m2930 -27 c0 -10 -27 -19 -53 -19 -21 1 -21 1 -4 15 19 14 57 17 57 4z m576
-62 c1 -15 -2 -28 -7 -28 -5 -1 -15 -2 -21 -3 -7 -1 -16 2 -19 8 -4 5 -20 4
-40 -3 -41 -14 -29 1 28 35 46 27 55 26 59 -9z m3900 -1 c3 -13 0 -34 -6 -47
-12 -22 -13 -22 -27 -4 -7 11 -11 26 -8 33 3 8 5 20 5 28 0 24 29 16 36 -10z
m-6727 -73 c-15 -18 -34 -1 -25 22 5 14 9 15 21 5 12 -10 13 -16 4 -27z m-109
-43 c0 -11 -4 -20 -9 -20 -14 0 -23 18 -16 30 10 17 25 11 25 -10z m30 -34 c0
-8 -4 -17 -9 -21 -12 -7 -24 12 -16 25 9 15 25 12 25 -4z m3118 -12 c34 -16
42 -38 17 -48 -8 -3 -15 -1 -15 4 0 5 -7 7 -16 3 -9 -3 -20 0 -26 8 -7 10 -9
8 -5 -8 4 -19 2 -21 -12 -13 -12 6 -22 5 -29 -2 -9 -9 -12 -7 -12 10 0 12 -3
22 -7 23 -27 3 -46 9 -60 21 -14 11 -13 14 13 19 43 8 114 0 152 -17z m-4091
-20 c-3 -3 -12 -4 -19 -1 -8 3 -5 6 6 6 11 1 17 -2 13 -5z m3978 -14 c3 -5 -1
-10 -10 -10 -9 0 -13 5 -10 10 3 6 8 10 10 10 2 0 7 -4 10 -10z m-2874 -16
c10 -13 10 -17 -2 -25 -23 -14 -39 -10 -39 9 0 34 20 42 41 16z m2929 -30 c0
-8 -4 -12 -10 -9 -5 3 -10 10 -10 16 0 5 5 9 10 9 6 0 10 -7 10 -16z m3730
-15 c0 -5 -7 -9 -15 -9 -15 0 -20 12 -9 23 8 8 24 -1 24 -14z m-5730 -4 c0 -3
-26 -18 -57 -34 -32 -17 -54 -30 -49 -31 12 0 -44 -60 -56 -60 -5 0 3 11 18
25 54 50 -19 16 -87 -40 -78 -66 -160 -145 -148 -145 8 0 8 -4 -1 -15 -7 -8
-18 -15 -26 -15 -7 0 -16 -5 -20 -12 -5 -8 -1 -9 12 -4 10 4 -15 -27 -56 -68
-41 -42 -70 -76 -65 -76 5 0 -17 -28 -50 -62 -55 -57 -49 -57 14 -1 14 12 27
21 29 19 13 -14 -72 -95 -104 -100 -7 -1 -17 -6 -21 -11 -5 -4 -1 -4 7 0 13 8
13 7 1 -8 -15 -18 -26 -23 -16 -7 14 23 -13 7 -47 -28 -20 -21 -54 -44 -75
-50 -46 -14 -54 -8 -16 12 15 8 57 42 93 75 53 49 62 62 50 70 -12 8 -10 15
14 40 16 17 28 33 25 35 -2 2 -69 -54 -149 -126 -138 -124 -200 -175 -200
-165 0 5 281 251 628 552 116 100 187 153 249 187 87 46 103 53 103 43z m4813
-2 c-13 -2 -35 -2 -50 0 -16 2 -5 4 22 4 28 0 40 -2 28 -4z m307 -14 c0 -11
-27 -12 -34 0 -3 4 -3 11 0 14 8 8 34 -3 34 -14z m-480 -75 c0 -16 -9 -18 -28
-6 -7 5 -10 16 -6 26 5 13 9 14 20 5 8 -6 14 -18 14 -25z m-6741 12 c7 -8 8
-17 3 -19 -4 -3 -13 3 -20 14 -14 22 0 26 17 5z m8115 -87 c-7 -13 -31 -11
-40 2 -9 16 18 30 33 17 7 -6 10 -14 7 -19z m-8244 1 c0 -5 -7 -10 -15 -10 -8
0 -15 5 -15 10 0 6 7 10 15 10 8 0 15 -4 15 -10z m4310 -21 c0 -6 -4 -7 -10
-4 -5 3 -10 11 -10 16 0 6 5 7 10 4 6 -3 10 -11 10 -16z m-2260 7 c0 -2 -12
-12 -27 -21 l-28 -18 19 21 c17 20 36 29 36 18z m157 -31 c0 -8 -2 -13 -5 -10
-10 10 -33 -27 -49 -78 -17 -57 -34 -71 -113 -93 -14 -4 -37 -15 -52 -26 -39
-27 -35 -15 12 36 28 30 46 42 59 39 14 -4 26 6 45 40 21 35 89 107 101 107 1
0 2 -7 2 -15z m-2376 -92 c13 -15 11 -16 -16 -9 -41 10 -56 26 -23 26 14 0 32
-7 39 -17z m168 -59 c45 -14 84 -30 87 -35 3 -5 21 -9 40 -9 20 0 44 -5 55
-11 29 -15 45 -6 24 14 -9 10 -16 20 -14 22 5 4 127 -23 154 -34 11 -5 79 -32
151 -61 76 -29 146 -64 165 -81 18 -16 36 -29 40 -29 11 0 48 -63 43 -72 -11
-18 -51 -4 -216 78 -95 47 -181 90 -192 96 -14 7 -17 6 -14 -4 3 -7 13 -18 24
-23 63 -33 164 -99 180 -117 21 -23 29 -23 -92 -2 -34 7 -36 6 -29 -16 7 -23
6 -23 -46 -17 -30 3 -81 18 -114 35 -33 16 -84 37 -112 48 -29 10 -53 22 -53
26 0 4 -6 8 -13 8 -17 0 -291 135 -331 163 -25 18 -27 21 -11 27 9 3 38 2 64
-3 51 -11 125 -2 116 14 -9 14 7 11 94 -17z m7631 12 c0 -8 -4 -17 -9 -21 -12
-7 -24 12 -16 25 9 15 25 12 25 -4z m-6918 -20 c-5 -30 -42 -109 -48 -103 -10
9 7 68 17 61 6 -3 10 0 8 7 -4 35 2 60 14 56 6 -2 11 -12 9 -21z m-112 -20 c0
-3 -4 -8 -10 -11 -5 -3 -10 -1 -10 4 0 6 5 11 10 11 6 0 10 -2 10 -4z m1170
-31 c-7 -9 -15 -13 -17 -11 -6 6 20 36 26 30 2 -2 -2 -10 -9 -19z m7120 -19
c0 -3 -4 -8 -10 -11 -5 -3 -10 -1 -10 4 0 6 5 11 10 11 6 0 10 -2 10 -4z
m-7150 -10 c0 -2 -8 -10 -17 -17 -16 -13 -17 -12 -4 4 13 16 21 21 21 13z
m7100 -61 c-38 -62 -180 -165 -180 -131 0 19 98 136 115 136 7 0 15 3 17 8 2
4 17 18 33 31 25 19 30 20 33 7 2 -9 -6 -32 -18 -51z m-6253 -142 c-2 -16 -4
-5 -4 22 0 28 2 40 4 28 2 -13 2 -35 0 -50z m4953 52 c7 -9 8 -15 2 -15 -5 0
-12 7 -16 15 -3 8 -4 15 -2 15 2 0 9 -7 16 -15z m-5326 -107 c-1 -13 -3 -26
-3 -30 -1 -5 -5 -8 -9 -8 -10 0 -9 30 2 48 11 17 13 15 10 -10z m36 8 c0 -3
-4 -8 -10 -11 -5 -3 -10 -1 -10 4 0 6 5 11 10 11 6 0 10 -2 10 -4z m23 -23 c8
-8 -35 -32 -46 -25 -5 2 0 10 10 18 21 15 27 17 36 7z m6708 -16 c-1 -12 -15
-9 -19 4 -3 6 1 10 8 8 6 -3 11 -8 11 -12z m-6661 -33 c0 -3 -7 -1 -15 6 -8 7
-15 17 -15 22 0 5 7 3 15 -6 8 -8 15 -18 15 -22z m-30 -4 c0 -5 -5 -10 -11
-10 -5 0 -7 5 -4 10 3 6 8 10 11 10 2 0 4 -4 4 -10z m-1189 -50 c21 -12 25
-35 7 -46 -13 -8 -51 33 -42 47 7 11 11 11 35 -1z m234 -8 c-3 -3 -11 0 -18 7
-9 10 -8 11 6 5 10 -3 15 -9 12 -12z m948 11 c-7 -2 -19 -2 -25 0 -7 3 -2 5
12 5 14 0 19 -2 13 -5z m5583 -54 c20 -22 23 -28 8 -19 -18 11 -50 50 -41 50
2 0 16 -14 33 -31z m298 -42 c8 -14 8 -20 -4 -27 -22 -14 -40 -12 -46 5 -16
41 27 60 50 22z m-7702 -16 c31 -11 68 -26 84 -36 l29 -16 -39 6 c-35 6 -146
52 -146 61 0 8 17 4 72 -15z m1548 -1 c0 -5 -5 -10 -11 -10 -5 0 -7 5 -4 10 3
6 8 10 11 10 2 0 4 -4 4 -10z m6875 -120 c3 -5 -1 -10 -9 -10 -9 0 -16 5 -16
10 0 6 4 10 9 10 6 0 13 -4 16 -10z m-7873 -42 c-6 -6 -15 -8 -19 -4 -4 4 -1
11 7 16 19 12 27 3 12 -12z m7008 -33 c14 -19 14 -19 -2 -6 -10 7 -18 18 -18
24 0 6 1 8 3 6 1 -2 9 -13 17 -24z m-6783 -67 c-58 -53 -62 -55 -71 -33 -6 18
48 83 79 95 10 4 25 2 31 -4 10 -8 1 -22 -39 -58z m6978 21 c0 -7 -8 -15 -17
-17 -18 -3 -25 18 -11 32 10 10 28 1 28 -15z m-7139 -11 c-10 -6 -20 -7 -24
-3 -9 8 20 25 31 18 5 -3 2 -10 -7 -15z m14 -23 c0 -8 -4 -15 -10 -15 -5 0
-10 7 -10 15 0 8 5 15 10 15 6 0 10 -7 10 -15z m233 -268 c3 -8 2 -20 -3 -26
-5 -9 -7 -4 -7 13 0 29 2 32 10 13z m6752 -156 c-8 -17 -21 -33 -27 -37 -8 -5
-7 1 3 16 8 14 19 31 23 38 15 25 16 11 1 -17z m-6805 -31 c14 -11 28 -20 31
-20 4 0 27 -11 50 -25 l44 -25 -40 7 c-22 3 -44 10 -49 14 -14 13 -28 11 -21
-2 4 -6 -2 -5 -13 2 -12 7 -19 16 -16 20 2 4 -5 9 -16 12 -13 3 -18 10 -14 21
8 20 13 20 44 -4z m7988 -13 c2 -10 -3 -17 -11 -17 -16 0 -30 24 -19 34 10 10
27 1 30 -17z m-1318 -167 c0 -5 -2 -10 -4 -10 -3 0 -8 5 -11 10 -3 6 -1 10 4
10 6 0 11 -4 11 -10z m68 -7 c-10 -2 -28 -2 -40 0 -13 2 -5 4 17 4 22 1 32 -1
23 -4z m-5024 -58 c-4 -8 -8 -15 -10 -15 -2 0 -4 7 -4 15 0 8 4 15 10 15 5 0
7 -7 4 -15z m-2468 -21 c-3 -9 -9 -27 -12 -40 -8 -32 -20 -23 -18 13 2 42 3
43 20 43 11 0 14 -5 10 -16z m8389 -85 c129 -66 139 -83 53 -95 -39 -6 -56 -2
-99 21 -70 36 -109 66 -109 82 0 7 -4 13 -10 13 -5 0 -7 7 -3 16 9 25 75 10
168 -37z m-7265 -86 c0 -7 -39 17 -46 28 -3 6 5 3 20 -6 14 -10 26 -19 26 -22z
m4570 -57 c0 -15 -14 -35 -21 -30 -15 9 -10 34 6 34 8 0 15 -2 15 -4z m-200
-28 c0 -16 -3 -19 -11 -11 -6 6 -8 16 -5 22 11 17 16 13 16 -11z m410 2 c0 -5
-2 -10 -4 -10 -3 0 -8 5 -11 10 -3 6 -1 10 4 10 6 0 11 -4 11 -10z m915 0 c-3
-5 2 -10 11 -10 14 0 12 -6 -12 -32 -48 -51 -77 -98 -80 -130 -2 -17 0 -27 6
-23 6 3 10 -1 10 -9 0 -9 -5 -16 -11 -16 -8 0 -7 -5 1 -15 11 -13 9 -20 -10
-40 -28 -30 -40 -31 -47 -5 -6 21 -23 28 -23 9 0 -6 -9 -8 -20 -4 -16 5 -31
-3 -60 -33 -26 -26 -40 -34 -40 -24 0 19 29 52 46 52 7 0 16 5 20 12 5 8 2 9
-11 4 -14 -5 -16 -4 -7 7 7 8 9 17 5 20 -3 4 0 13 7 22 8 9 8 15 2 15 -6 0
-43 -36 -81 -80 -39 -44 -71 -76 -71 -72 0 15 191 222 205 222 3 0 23 15 43
34 123 112 131 118 117 96z m-5797 -49 c55 -28 129 -96 167 -155 11 -16 14
-27 8 -25 -22 7 -141 114 -154 137 -8 15 -18 20 -31 16 -16 -5 -22 4 -20 27 1
4 -6 6 -15 5 -9 0 -18 5 -20 12 -7 17 1 16 65 -17z m54 -114 c-1 -5 2 -6 8 -2
6 3 27 -9 48 -28 95 -87 136 -129 119 -123 -14 4 -12 -2 10 -32 l28 -37 -40
32 c-58 46 -245 239 -245 253 0 7 17 -3 38 -21 20 -18 36 -37 34 -42z m4603
41 c-19 -11 -30 -5 -21 11 4 6 14 7 22 4 15 -5 14 -7 -1 -15z m-3851 -249 c7
-96 12 -175 11 -176 -1 -1 -64 56 -142 127 -77 71 -143 127 -145 124 -3 -2
-18 11 -34 29 -28 31 -28 31 -1 8 17 -16 27 -20 27 -11 0 7 3 10 7 7 3 -4 17
0 29 8 28 18 102 44 129 45 11 1 36 7 55 14 19 7 39 9 43 5 5 -4 14 -85 21
-180z m5056 188 c0 -2 -19 -21 -42 -42 -41 -38 -41 -38 -13 -5 34 40 55 57 55
47z m-1715 -95 c72 -28 147 -58 168 -67 21 -8 42 -13 46 -10 5 2 20 -7 35 -22
l26 -26 -20 -31 c-17 -27 -24 -31 -61 -28 -22 1 -51 9 -63 17 -17 11 -51 14
-144 12 -74 -1 -124 2 -127 8 -3 6 -7 5 -11 -2 -3 -7 -14 -13 -24 -13 -13 0
-17 5 -13 19 3 13 -2 23 -15 30 -23 12 -67 79 -58 88 3 4 6 2 6 -3 0 -10 48
-16 147 -18 29 -1 53 -5 53 -9 0 -5 5 -5 12 -1 7 5 25 7 40 6 15 -1 28 1 28 6
0 4 -42 29 -92 55 -109 56 -104 55 67 -11z m1333 31 c-8 -10 -37 -45 -64 -78
-27 -33 -57 -66 -67 -73 -9 -7 -15 -17 -12 -22 3 -4 -30 -51 -73 -103 -42 -53
-94 -118 -114 -144 -81 -104 -324 -334 -283 -268 l19 30 -35 -32 c-19 -18 -40
-33 -47 -33 -7 0 -12 -6 -13 -12 0 -10 -2 -10 -6 0 -3 7 14 37 36 67 40 53 67
72 54 38 -5 -12 1 -10 25 7 18 13 32 32 32 42 0 9 16 32 36 50 19 18 53 59 75
91 21 32 50 68 64 79 24 18 25 18 25 1 1 -27 60 46 81 99 12 33 46 71 145 160
125 114 153 137 122 101z m-3488 -170 c-13 -62 -56 -234 -66 -269 -5 -18 0
-22 32 -27 40 -7 57 4 47 30 -10 25 12 13 28 -16 16 -28 34 -35 119 -46 8 -1
22 -5 30 -7 40 -14 197 -31 300 -33 117 -2 159 -9 173 -29 5 -8 9 -8 15 0 8
14 62 11 88 -4 15 -9 10 -11 -26 -7 -40 3 -38 2 18 -11 58 -15 62 -17 62 -45
0 -16 -5 -29 -11 -29 -5 0 -8 4 -5 9 7 10 -17 16 -104 27 -55 7 -174 47 -198
67 -11 8 -13 7 -12 -4 1 -7 2 -20 1 -26 -2 -20 -106 -16 -186 7 -38 11 -82 20
-97 20 -15 0 -29 4 -32 9 -3 4 -29 11 -58 14 -29 3 -71 15 -94 26 -23 11 -50
20 -60 20 -10 -1 -46 7 -79 16 -33 9 -67 18 -75 20 -8 2 -35 8 -60 14 -68 16
-71 15 -59 -15 20 -53 2 -31 -34 41 -39 79 -43 99 -8 40 17 -29 26 -35 54 -35
26 0 36 5 40 19 2 11 0 24 -5 29 -6 6 -7 19 -3 29 5 10 9 20 9 23 3 16 46 57
77 73 20 10 47 28 60 40 47 43 122 97 127 92 3 -3 -1 -31 -8 -62z m3556 -90
c-4 -4 -129 -134 -279 -288 -476 -491 -1216 -1227 -1096 -1090 53 61 89 124
54 95 -9 -7 -19 -10 -23 -6 -4 4 15 27 42 49 43 36 326 378 326 393 0 3 -21
-9 -47 -28 -74 -53 -81 -54 -39 -10 22 23 37 44 34 47 -3 3 -22 -14 -42 -37
-20 -24 -42 -49 -48 -56 -21 -22 -158 -132 -165 -132 -3 0 -3 15 0 34 7 42
-14 51 -64 28 -19 -8 -40 -16 -47 -18 -7 -1 -29 -12 -50 -24 -41 -23 24 43
243 247 117 110 145 143 70 83 -21 -16 -45 -30 -54 -30 -10 0 -36 -9 -59 -20
-22 -11 -46 -20 -51 -20 -5 0 -31 -11 -57 -25 -45 -24 -74 -32 -74 -20 0 44
129 155 250 214 41 20 147 77 234 126 134 75 178 107 275 195 152 137 110 79
-63 -88 -38 -37 -96 -96 -130 -132 -93 -99 -194 -199 -266 -263 -75 -67 -52
-53 132 80 59 43 133 95 165 116 32 20 94 64 138 97 44 32 106 74 138 92 86
49 208 121 240 142 39 26 33 6 -8 -24 -208 -153 -611 -544 -768 -745 -56 -71
-106 -134 -112 -140 -5 -5 -23 -26 -40 -45 -29 -34 -28 -33 13 5 50 46 55 41
10 -12 -21 -25 -13 -20 25 16 31 30 54 57 52 61 -2 4 11 22 30 40 19 19 35 30
35 25 0 -4 9 0 20 10 11 10 17 22 13 28 -3 5 -2 7 4 4 6 -4 174 161 374 365
200 205 385 392 412 417 44 42 63 71 35 55 -8 -4 -10 -3 -5 2 5 5 13 10 18 10
5 1 14 2 19 3 6 0 10 6 10 12 0 6 -7 8 -17 5 -10 -4 13 22 52 57 38 36 75 63
80 60 6 -2 22 8 35 22 13 14 26 25 28 25 3 0 2 -3 -2 -7z m-1862 -31 c2 -4 -6
-9 -20 -10 -13 -1 -24 3 -24 8 0 12 37 14 44 2z m2486 -12 c0 -5 -4 -10 -10
-10 -5 0 -10 5 -10 10 0 6 5 10 10 10 6 0 10 -4 10 -10z m-2481 -24 c6 -7 9
-21 5 -30 -4 -10 -1 -16 7 -16 9 -1 7 -6 -6 -16 -12 -10 -16 -18 -9 -21 22 -8
4 -41 -22 -39 -13 0 -24 4 -24 9 0 4 -7 7 -16 7 -8 0 -12 5 -9 10 4 6 11 7 17
4 6 -4 8 -3 5 3 -4 6 0 18 7 29 15 20 10 48 -6 38 -6 -4 -5 -10 3 -15 11 -7
10 -9 -3 -9 -24 0 -23 15 4 40 26 24 32 25 47 6z m1405 -11 c-4 -8 -11 -15
-16 -15 -6 0 -5 6 2 15 7 8 14 15 16 15 2 0 1 -7 -2 -15z m-1027 -20 c0 -8 -4
-12 -9 -9 -4 3 -8 9 -8 15 0 5 4 9 8 9 5 0 9 -7 9 -15z m83 11 c0 -3 -4 -8
-10 -11 -5 -3 -10 -1 -10 4 0 6 5 11 10 11 6 0 10 -2 10 -4z m145 -46 c-14
-27 -28 -50 -31 -50 -2 0 0 9 6 21 7 11 10 22 8 24 -2 1 -33 -5 -70 -15 -36
-9 -86 -20 -110 -23 -23 -3 -35 -3 -25 0 20 5 20 8 7 34 -7 13 -7 19 0 19 5 0
10 -4 10 -9 0 -21 42 -21 122 -1 46 12 87 28 91 36 4 8 10 14 13 14 2 0 -7
-22 -21 -50z m4775 36 c0 -2 -8 -10 -17 -17 -16 -13 -17 -12 -4 4 13 16 21 21
21 13z m-3050 -41 c0 -8 -7 -15 -15 -15 -16 0 -20 12 -8 23 11 12 23 8 23 -8z
m-5320 -94 c97 -75 72 -65 -37 16 -40 30 -73 56 -73 59 0 6 46 -25 110 -75z
m3028 0 c39 -11 58 -31 29 -31 -14 0 -54 -38 -46 -43 2 -2 22 -8 44 -13 25 -5
40 -15 40 -24 0 -8 7 -14 15 -14 19 2 181 43 200 52 8 3 22 6 30 7 105 8 136
18 177 61 l41 43 -16 -37 c-10 -20 -50 -97 -90 -170 -39 -73 -72 -136 -72
-139 0 -3 6 0 13 6 8 6 47 25 88 42 186 78 461 189 468 189 2 0 -3 -8 -10 -17
-12 -15 -12 -16 4 -10 22 9 44 15 34 10 -4 -3 -5 -8 -2 -12 2 -5 -30 -33 -73
-63 -87 -62 -199 -127 -188 -110 4 7 4 12 1 12 -11 0 -163 -100 -175 -115 -7
-8 -20 -15 -30 -15 -9 0 -30 -12 -47 -27 -16 -16 -47 -43 -68 -60 -38 -31 -39
-33 -15 -34 14 -1 28 -1 33 0 14 2 7 -16 -15 -36 -43 -40 -242 -182 -249 -177
-4 2 -22 -21 -39 -51 -17 -30 -33 -55 -36 -55 -6 0 32 73 81 155 23 39 70 122
105 185 35 63 85 153 112 200 49 85 58 110 36 93 -7 -5 -45 -20 -85 -32 -48
-16 -80 -33 -98 -52 -14 -17 -37 -34 -50 -39 -14 -5 -26 -20 -30 -39 -4 -17
-10 -31 -15 -31 -5 0 -14 -16 -20 -35 -11 -34 -43 -65 -67 -65 -13 0 -19 28
-28 120 -3 30 -10 80 -16 111 -11 55 -12 56 -29 39 -29 -29 -90 -54 -102 -42
-7 7 -29 1 -72 -18 -78 -37 -90 -39 -91 -18 0 24 1 24 -98 -14 -26 -10 -56
-18 -65 -18 -10 0 -26 -6 -36 -13 -22 -16 -19 -35 40 -241 33 -117 40 -170 12
-84 -8 24 -19 42 -24 42 -5 -1 -38 9 -73 22 -35 13 -67 21 -70 18 -3 -4 0 -9
7 -11 9 -4 10 -9 3 -17 -6 -7 -12 -27 -14 -44 -5 -40 -25 -66 -42 -52 -6 5
-14 7 -17 4 -7 -7 -16 37 -20 94 -1 29 3 47 12 54 13 8 12 9 -1 5 -11 -4 -20
3 -27 17 -8 18 -31 27 -136 51 -136 32 -134 30 -115 98 10 38 11 38 47 32 91
-15 188 -22 197 -14 5 5 46 9 91 9 46 0 85 4 88 9 3 4 0 28 -7 51 l-12 43
-183 1 -183 1 -10 -38 c-9 -34 -13 -38 -34 -33 -12 3 -72 12 -133 20 -132 18
-212 53 -212 93 0 12 19 13 108 8 118 -7 240 -21 264 -30 12 -5 18 2 23 23 6
28 8 30 36 22 38 -11 282 0 295 13 1 1 -1 22 -6 47 -9 50 5 72 28 43 6 -9 12
-12 12 -6 0 13 44 22 130 27 73 4 86 7 116 24 12 6 51 16 87 22 37 6 78 15 93
20 14 6 30 8 35 5 5 -4 17 -1 26 4 14 8 15 11 3 11 -10 1 -8 4 5 10 13 5 24 3
30 -5 6 -7 30 -18 53 -24z m277 29 c-3 -5 -15 -10 -26 -10 -10 0 -19 5 -19 10
0 6 12 10 26 10 14 0 23 -4 19 -10z m1418 -7 c-7 -2 -19 -2 -25 0 -7 3 -2 5
12 5 14 0 19 -2 13 -5z m95 -10 c-10 -2 -26 -2 -35 0 -10 3 -2 5 17 5 19 0 27
-2 18 -5z m-6048 -12 c0 -6 -5 -13 -10 -16 -14 -9 -52 4 -45 16 8 12 55 12 55
0z m1555 -11 c10 -11 16 -20 13 -20 -3 0 -15 9 -28 20 -13 11 -19 20 -13 20 5
0 18 -9 28 -20z m2811 5 c-23 -17 -60 -20 -51 -4 4 6 13 8 21 5 7 -3 16 -1 19
4 4 6 12 10 18 10 7 0 3 -7 -7 -15z m1882 4 c-2 -6 -8 -10 -13 -10 -5 0 -11 4
-13 10 -2 6 4 11 13 11 9 0 15 -5 13 -11z m-4423 -97 c-3 -3 -11 0 -18 7 -9
10 -8 11 6 5 10 -3 15 -9 12 -12z m45 -129 c0 -2 -6 -1 -12 3 -27 16 -158 114
-158 119 0 2 38 -23 85 -57 47 -33 85 -62 85 -65z m928 105 c32 -10 40 -22 22
-33 -12 -8 -123 4 -141 15 -10 7 -10 11 1 24 13 17 49 15 118 -6z m-209 -48
c14 -8 13 -10 -4 -15 -26 -8 -50 -58 -37 -81 12 -22 22 -22 33 -1 6 9 14 15
20 12 5 -4 9 -2 9 3 0 16 45 31 64 20 14 -8 16 -6 10 16 -8 35 2 33 21 -4 20
-39 19 -43 -7 -34 -13 3 -20 3 -16 -1 4 -4 -23 -23 -60 -41 -37 -19 -79 -44
-93 -55 -29 -23 -69 -19 -69 7 0 16 -20 56 -34 65 -5 4 -5 13 -1 20 5 8 5 11
0 7 -4 -4 -17 4 -28 18 -17 22 -18 27 -6 35 8 4 15 13 15 19 1 5 2 12 3 15 0
3 10 1 21 -5 12 -6 20 -7 20 -1 0 21 104 22 139 1z m-424 -40 c11 -5 15 -9 8
-9 -19 -1 -122 39 -128 50 -5 8 34 -6 120 -41z m-130 30 c3 -5 2 -10 -4 -10
-5 0 -13 5 -16 10 -3 6 -2 10 4 10 5 0 13 -4 16 -10z m42 -26 c-3 -3 -12 -4
-19 -1 -8 3 -5 6 6 6 11 1 17 -2 13 -5z m5053 -4 c0 -5 -5 -10 -11 -10 -5 0
-7 5 -4 10 3 6 8 10 11 10 2 0 4 -4 4 -10z m-5025 -20 c3 -5 2 -10 -4 -10 -5
0 -13 5 -16 10 -3 6 -2 10 4 10 5 0 13 -4 16 -10z m145 -12 c10 -6 7 -7 -10
-2 -14 3 -32 11 -40 16 -10 6 -7 7 10 2 14 -3 32 -11 40 -16z m4310 12 c0 -5
-9 -10 -21 -10 -11 0 -17 5 -14 10 3 6 13 10 21 10 8 0 14 -4 14 -10z m-4160
-21 c0 -5 -4 -9 -10 -9 -5 0 -10 7 -10 16 0 8 5 12 10 9 6 -3 10 -10 10 -16z
m-4035 -9 c3 -5 -1 -10 -10 -10 -9 0 -13 5 -10 10 3 6 8 10 10 10 2 0 7 -4 10
-10z m3951 0 c15 -6 25 -13 22 -15 -3 -3 -20 1 -39 9 -38 17 -25 21 17 6z
m522 -19 c9 -5 36 -15 59 -22 24 -6 49 -22 57 -34 13 -20 13 -25 0 -44 -9 -12
-13 -30 -9 -41 4 -14 1 -22 -11 -27 -21 -8 -84 57 -84 87 0 11 -5 20 -11 20
-5 0 -7 5 -4 10 3 6 1 10 -6 10 -12 0 -38 29 -39 43 0 10 27 9 48 -2z m3627
-11 c3 -5 1 -10 -4 -10 -6 0 -11 5 -11 10 0 6 2 10 4 10 3 0 8 -4 11 -10z
m-2305 -4 c0 -3 -4 -8 -10 -11 -5 -3 -10 -1 -10 4 0 6 5 11 10 11 6 0 10 -2
10 -4z m36 -33 c-11 -11 -19 6 -11 24 8 17 8 17 12 0 3 -10 2 -21 -1 -24z
m3425 -139 c10 -13 10 -17 -1 -24 -14 -9 -50 4 -50 19 0 24 32 28 51 5z
m-4794 -16 c-3 -8 -6 -5 -6 6 -1 11 2 17 5 13 3 -3 4 -12 1 -19z m2931 -131
c13 -4 12 -5 -5 -6 -19 -1 -22 5 -25 57 -2 31 -1 66 2 77 3 11 6 -12 8 -52 2
-58 6 -73 20 -76z m-48 113 c0 -5 -4 -10 -10 -10 -5 0 -10 5 -10 10 0 6 5 10
10 10 6 0 10 -4 10 -10z m845 -60 c9 -15 -14 -40 -36 -40 -27 0 -35 21 -14 37
22 16 41 17 50 3z m-1384 -67 c-14 -24 -85 -102 -74 -82 8 16 76 98 81 99 1 0
-2 -8 -7 -17z m2489 -3 c0 -11 -4 -20 -10 -20 -5 0 -10 9 -10 20 0 11 5 20 10
20 6 0 10 -9 10 -20z m-1802 3 c-10 -2 -26 -2 -35 0 -10 3 -2 5 17 5 19 0 27
-2 18 -5z m1597 -3 c3 -5 -3 -10 -14 -10 -12 0 -21 5 -21 10 0 6 6 10 14 10 8
0 18 -4 21 -10z m-1517 -7 c-10 -2 -26 -2 -35 0 -10 3 -2 5 17 5 19 0 27 -2
18 -5z m144 -31 c3 -11 0 -19 -8 -19 -8 0 -14 9 -14 19 0 10 4 18 9 18 5 0 11
-8 13 -18z m-4857 -2 c3 -5 -1 -10 -10 -10 -9 0 -13 5 -10 10 3 6 8 10 10 10
2 0 7 -4 10 -10z m3720 -83 c-8 -13 -12 -26 -9 -30 10 -9 -25 -59 -37 -52 -5
4 -21 -2 -37 -13 -37 -26 -69 -33 -69 -15 0 8 32 37 71 65 39 28 73 55 74 60
2 4 8 8 13 8 5 0 3 -10 -6 -23z m135 10 c0 -2 -10 -12 -22 -23 l-23 -19 19 23
c18 21 26 27 26 19z m530 -21 c0 -13 -39 -30 -48 -21 -8 7 20 35 34 35 8 0 14
-6 14 -14z m-5395 -26 c-3 -5 -10 -10 -16 -10 -5 0 -9 5 -9 10 0 6 7 10 16 10
8 0 12 -4 9 -10z m5433 -33 c3 -13 -4 -17 -30 -17 -40 0 -71 16 -48 24 8 2 22
7 30 10 25 8 45 2 48 -17z m-4607 -10 c-13 -13 -26 -3 -16 12 3 6 11 8 17 5 6
-4 6 -10 -1 -17z m404 14 c3 -5 1 -12 -5 -16 -5 -3 -10 1 -10 9 0 18 6 21 15
7z m3723 -108 c-10 -2 -26 -2 -35 0 -10 3 -2 5 17 5 19 0 27 -2 18 -5z m-3488
-13 c0 -5 -4 -10 -10 -10 -5 0 -10 5 -10 10 0 6 5 10 10 10 6 0 10 -4 10 -10z
m3578 3 c-10 -2 -26 -2 -35 0 -10 3 -2 5 17 5 19 0 27 -2 18 -5z m85 -10 c-7
-2 -21 -2 -30 0 -10 3 -4 5 12 5 17 0 24 -2 18 -5z m84 -9 c-3 -3 -12 -4 -19
-1 -8 3 -5 6 6 6 11 1 17 -2 13 -5z m1559 -20 c24 -25 33 -61 13 -48 -6 3 -21
1 -34 -6 -28 -15 -55 -7 -55 16 0 12 6 15 21 11 17 -4 19 -3 10 6 -17 17 -13
47 5 47 9 0 27 -11 40 -26z m-1223 -21 c-7 -2 -21 -2 -30 0 -10 3 -4 5 12 5
17 0 24 -2 18 -5z m-5422 -24 c8 -16 8 -24 0 -32 -14 -14 -31 6 -31 36 0 23
17 22 31 -4z m1259 -90 c0 -5 -4 -9 -10 -9 -5 0 -10 7 -10 16 0 8 5 12 10 9 6
-3 10 -10 10 -16z m6058 -24 c18 -16 32 -40 32 -52 0 -38 -18 -73 -39 -73 -22
0 -31 18 -32 63 0 18 -3 26 -6 20 -8 -21 -43 -16 -43 6 0 10 -7 21 -15 25 -21
8 -19 34 3 38 43 9 70 1 100 -27z m-1575 11 c10 -26 -46 -53 -83 -41 -32 10
-23 32 18 43 52 14 59 14 65 -2z m-133 -31 c0 -8 -4 -15 -10 -15 -5 0 -10 7
-10 15 0 8 5 15 10 15 6 0 10 -7 10 -15z m-1300 -38 c0 -2 -17 -19 -37 -38
l-38 -34 34 38 c33 34 41 42 41 34z m-3835 -17 c-3 -5 -10 -10 -16 -10 -5 0
-9 5 -9 10 0 6 7 10 16 10 8 0 12 -4 9 -10z m5149 -11 c-3 -5 -10 -7 -15 -3
-5 3 -7 10 -3 15 3 5 10 7 15 3 5 -3 7 -10 3 -15z m-44 -39 c0 -5 -2 -10 -4
-10 -3 0 -8 5 -11 10 -3 6 -1 10 4 10 6 0 11 -4 11 -10z m-4320 -95 c0 -8 -4
-15 -9 -15 -13 0 -22 16 -14 24 11 11 23 6 23 -9z m3530 -11 c0 -2 -7 -4 -15
-4 -8 0 -15 4 -15 10 0 5 7 7 15 4 8 -4 15 -8 15 -10z m-3820 -34 c0 -5 -4
-10 -10 -10 -5 0 -10 5 -10 10 0 6 5 10 10 10 6 0 10 -4 10 -10z m2985 -21
c-9 -16 -24 -33 -33 -36 -9 -4 -23 -13 -30 -20 -7 -7 -17 -13 -22 -13 -41 0
26 78 72 84 3 1 10 4 14 9 15 14 14 6 -1 -24z m1152 15 c-3 -3 -12 -4 -19 -1
-8 3 -5 6 6 6 11 1 17 -2 13 -5z m-1182 -154 c-115 -115 -156 -151 -105 -92
31 34 213 211 220 212 3 0 -49 -54 -115 -120z m-4990 50 c3 -5 -1 -10 -9 -10
-9 0 -16 5 -16 10 0 6 4 10 9 10 6 0 13 -4 16 -10z m4075 -5 c0 -8 -7 -15 -15
-15 -16 0 -20 12 -8 23 11 12 23 8 23 -8z m655 5 c-3 -5 -12 -10 -18 -10 -7 0
-6 4 3 10 19 12 23 12 15 0z m-645 -89 c0 -6 -4 -13 -10 -16 -5 -3 -10 1 -10
9 0 9 5 16 10 16 6 0 10 -4 10 -9z m1606 -52 c14 -28 14 -33 1 -47 -20 -19
-45 -9 -57 24 -7 19 -7 31 1 40 18 22 37 16 55 -17z m-3251 -29 c0 -8 -10 -16
-22 -18 -25 -4 -26 -2 -17 23 8 19 39 16 39 -5z m2151 -79 c16 13 16 12 3 -8
-16 -26 -41 -39 -32 -17 3 7 0 14 -7 14 -6 0 -8 5 -4 11 4 8 9 7 14 -2 7 -10
12 -10 26 2z m-586 -31 c0 -5 -5 -10 -11 -10 -5 0 -7 5 -4 10 3 6 8 10 11 10
2 0 4 -4 4 -10z m730 -3 c0 -1 -42 -43 -92 -92 l-93 -90 90 93 c83 85 95 97
95 89z m-475 -81 c15 2 75 -29 75 -38 0 -15 -32 -8 -63 14 -25 18 -29 19 -24
5 3 -9 3 -17 -2 -17 -12 0 -22 56 -14 77 6 14 9 12 13 -12 3 -16 10 -29 15
-29z m-190 15 c3 -5 -1 -16 -9 -24 -8 -8 -12 -18 -8 -22 4 -5 1 -5 -6 -1 -7 4
-10 12 -7 17 4 5 1 9 -6 9 -8 0 -8 4 1 15 14 17 26 19 35 6z m155 -55 c0 -7
-9 -16 -20 -19 -24 -6 -25 -3 -4 17 19 20 24 20 24 2z m-85 -136 c3 -5 1 -10
-4 -10 -6 0 -11 5 -11 10 0 6 2 10 4 10 3 0 8 -4 11 -10z m-1045 -4 c0 -3 -4
-8 -10 -11 -5 -3 -10 -1 -10 4 0 6 5 11 10 11 6 0 10 -2 10 -4z m7589 -122
c27 -63 90 -123 156 -151 25 -10 45 -20 45 -23 0 -3 -25 -16 -56 -29 -63 -27
-123 -90 -151 -156 -10 -25 -20 -45 -23 -45 -3 0 -16 25 -29 56 -27 63 -90
123 -156 151 -25 10 -45 20 -45 23 0 3 25 16 56 29 63 27 123 90 151 156 10
25 20 45 23 45 3 0 16 -25 29 -56z m-5102 -240 c-3 -3 -12 -4 -19 -1 -8 3 -5
6 6 6 11 1 17 -2 13 -5z m73 -4 c0 -5 -10 -10 -22 -9 -22 0 -22 1 -3 9 11 5
21 9 23 9 1 1 2 -3 2 -9z m-1646 -369 c9 -15 -18 -31 -34 -20 -13 8 -13 10 0
19 19 12 27 12 34 1z"/>
<path d="M8945 6210 c3 -6 26 -9 50 -8 56 4 47 18 -11 18 -28 0 -43 -4 -39
-10z"/>
<path d="M9255 6200 c4 -6 11 -8 16 -5 14 9 11 15 -7 15 -8 0 -12 -5 -9 -10z"/>
<path d="M8906 6173 c10 -40 14 -41 14 -5 0 18 -5 32 -10 32 -6 0 -8 -11 -4
-27z"/>
<path d="M5210 6010 c0 -5 5 -10 10 -10 6 0 10 5 10 10 0 6 -4 10 -10 10 -5 0
-10 -4 -10 -10z"/>
<path d="M5105 5984 c-22 -13 -33 -24 -25 -24 13 0 13 -2 0 -11 -12 -9 -11 -9
5 -3 11 4 32 7 47 6 15 -1 30 4 34 10 4 7 3 8 -4 4 -7 -4 -12 -2 -12 5 0 8 13
10 44 6 31 -5 46 -3 49 6 4 9 6 9 6 0 2 -22 37 -15 37 7 0 12 -5 19 -12 16 -7
-3 -29 -8 -50 -12 -28 -5 -35 -4 -29 6 6 9 3 9 -15 0 -15 -8 -25 -9 -29 -2 -4
7 -21 1 -46 -14z"/>
<path d="M5481 5921 c-8 -5 -28 -7 -45 -4 -19 3 -39 -1 -51 -11 -19 -14 -14
-15 55 -14 65 0 158 14 122 17 -7 0 -10 6 -7 11 8 13 -55 13 -74 1z"/>
<path d="M4977 5903 c-14 -13 -6 -20 23 -20 26 0 27 2 12 13 -20 15 -26 17
-35 7z"/>
<path d="M5073 5885 c4 -5 31 -8 60 -7 43 1 48 0 28 -9 -14 -5 -32 -7 -40 -4
-13 5 -13 4 -4 -6 13 -13 158 -28 283 -29 89 0 112 -10 69 -29 -16 -7 -29 -17
-29 -22 0 -28 114 -33 147 -7 15 12 104 4 253 -22 120 -21 163 -35 140 -44
-39 -15 -317 -66 -336 -62 -11 3 -51 26 -89 51 -89 58 -117 66 -194 51 l-62
-11 108 -67 108 -66 165 -16 c91 -9 267 -26 391 -38 l227 -21 98 50 c55 27
108 48 119 47 64 -10 -68 32 -179 57 -161 36 -277 67 -291 78 -5 5 -41 19 -80
32 -56 18 -88 22 -157 20 -49 -1 -139 5 -200 13 -62 9 -132 16 -156 18 -24 1
-45 5 -48 10 -3 4 -11 5 -19 2 -7 -3 -24 2 -38 10 -17 12 -60 18 -153 23 -71
3 -126 2 -121 -2z m964 -181 c-3 -3 -12 -4 -19 -1 -8 3 -5 6 6 6 11 1 17 -2
13 -5z"/>
<path d="M8178 5763 c7 -3 16 -2 19 1 4 3 -2 6 -13 5 -11 0 -14 -3 -6 -6z"/>
<path d="M8105 5745 c-40 -14 -40 -14 -5 -8 19 3 42 9 50 14 22 12 1 9 -45 -6z"/>
<path d="M8038 5723 c7 -3 16 -2 19 1 4 3 -2 6 -13 5 -11 0 -14 -3 -6 -6z"/>
<path d="M7968 5703 c7 -3 16 -2 19 1 4 3 -2 6 -13 5 -11 0 -14 -3 -6 -6z"/>
<path d="M8797 5690 c-15 -12 -24 -27 -20 -35 3 -8 0 -15 -6 -15 -6 0 -11 5
-11 11 0 13 -99 -40 -150 -81 -29 -22 -38 -25 -47 -14 -10 10 -9 14 5 17 35
10 -55 6 -96 -4 -44 -10 -76 -31 -65 -43 4 -3 -3 -19 -14 -34 -11 -15 -23 -41
-27 -58 -6 -27 -132 -161 -249 -263 l-37 -33 35 52 c19 29 35 58 35 65 0 44
188 315 198 286 5 -16 22 -13 22 4 0 10 -10 15 -32 15 -86 0 -1150 -126 -1213
-144 -5 -2 8 -13 30 -25 44 -25 35 -23 -40 8 -55 22 -306 58 -635 91 -314 31
-680 70 -729 77 l-44 6 24 -33 c55 -74 54 -70 24 -64 -21 4 -26 1 -22 -10 4
-10 0 -14 -13 -11 -13 3 -17 -1 -13 -11 3 -8 -1 -14 -10 -14 -9 0 -18 -9 -22
-19 -4 -13 -12 -18 -23 -15 -14 5 -15 4 -2 -5 8 -6 15 -14 16 -18 0 -4 31 -70
69 -145 43 -86 72 -133 77 -125 6 9 8 8 9 -3 1 -8 3 -24 4 -36 3 -33 57 -124
72 -124 8 0 12 -4 8 -10 -3 -5 3 -18 15 -30 11 -11 15 -20 8 -20 -6 0 -8 -3
-5 -7 4 -3 63 22 131 58 l124 64 26 -28 c14 -15 28 -27 31 -27 10 0 35 -28 35
-39 0 -6 4 -11 9 -11 5 0 29 -29 54 -65 43 -63 142 -175 154 -175 9 0 124
-123 141 -152 17 -28 32 -37 32 -17 0 27 21 -9 60 -103 142 -344 232 -556 245
-580 9 -15 11 -29 6 -32 -8 -6 -47 31 -45 43 1 3 -94 105 -210 226 -361 376
-702 728 -745 769 l-40 39 -9 -24 c-5 -13 -19 -52 -32 -86 l-22 -62 96 -290
c109 -326 141 -410 148 -390 3 8 11 -14 18 -48 8 -42 16 -60 25 -57 17 7 41
-57 55 -143 17 -105 30 -141 54 -147 11 -3 61 -8 110 -12 66 -5 90 -4 96 6 6
10 12 10 31 0 31 -17 182 -8 409 24 127 18 186 23 215 16 86 -19 254 -39 330
-40 44 -1 110 -6 146 -12 40 -6 110 -8 181 -3 l115 7 51 126 c29 70 58 145 66
167 8 22 33 92 56 155 37 102 70 199 70 208 0 2 -4 1 -9 -2 -13 -8 -13 149 0
197 9 35 21 55 74 125 6 7 17 22 26 32 9 10 24 41 32 70 15 49 14 55 -5 109
-12 31 -24 60 -28 64 -4 4 -34 -25 -68 -65 -33 -40 -100 -109 -149 -153 -82
-74 -79 -70 47 63 74 79 159 180 188 225 29 45 55 84 58 86 11 11 -11 -36 -33
-72 -13 -21 -21 -42 -18 -47 4 -6 2 -10 -4 -10 -11 0 -4 -29 28 -109 l22 -55
-20 -76 c-25 -91 -25 -96 -6 -76 8 8 25 13 36 11 15 -3 19 0 15 10 -12 31 -27
97 -23 101 2 2 15 -24 28 -58 24 -61 26 -63 58 -60 33 4 111 -25 111 -40 0 -5
7 -8 15 -8 8 0 15 -8 15 -18 0 -11 9 -27 19 -36 19 -18 20 -34 6 -111 -13 -71
-29 -121 -43 -138 -19 -21 -9 -57 74 -269 30 -76 54 -142 54 -147 0 -17 31
-41 53 -40 12 0 16 3 10 6 -15 5 -17 34 -4 49 4 5 11 23 15 39 4 20 -2 12 -19
-22 -41 -89 -36 -59 7 45 22 53 57 144 78 202 67 186 103 252 128 236 5 -3 9
0 9 7 0 20 37 91 41 79 5 -16 31 -15 62 1 27 14 50 12 50 -4 0 -6 -8 -9 -17
-8 -31 3 -44 -1 -38 -11 3 -5 12 -7 19 -4 7 3 16 -2 19 -10 7 -17 37 -22 37
-6 0 6 -4 10 -9 10 -5 0 -7 9 -4 19 4 16 -9 27 -73 59 -92 47 -219 129 -219
141 0 5 -3 13 -7 17 -14 13 -9 66 5 61 6 -2 11 -10 9 -17 -3 -11 0 -11 12 0
13 10 16 10 16 -3 0 -10 6 -13 20 -10 12 3 20 2 19 -3 -6 -37 7 -16 37 56 24
56 36 100 35 130 0 25 6 74 14 110 l14 65 -3 -78 -3 -77 43 75 c61 108 141
217 99 135 -14 -27 -14 -30 0 -30 8 0 15 -6 15 -14 0 -27 52 -76 151 -142 105
-70 133 -95 48 -43 -27 17 -53 28 -57 24 -4 -4 13 -25 38 -47 52 -46 41 -42
-55 23 -38 26 -100 63 -136 83 -58 32 -68 34 -79 21 -10 -12 5 -45 87 -192 55
-98 112 -200 128 -228 64 -116 87 -155 89 -155 3 0 61 67 294 337 34 40 62 74
62 77 0 2 -8 12 -17 22 -13 12 -14 19 -6 21 19 7 -11 49 -92 128 -40 39 -92
99 -116 135 -38 56 -44 71 -42 113 l1 49 -66 48 -66 49 -53 -80 c-54 -80 -76
-103 -49 -50 14 27 14 29 -12 53 -32 29 -106 63 -120 54 -5 -3 -12 -36 -16
-73 -3 -37 -17 -111 -30 -163 l-23 -95 -4 52 c-2 28 -1 49 2 47 9 -5 19 121
14 174 -2 23 0 42 3 42 4 0 7 17 8 37 0 21 2 64 2 97 l2 59 43 -8 c109 -19
127 -21 127 -13 0 4 -6 8 -13 8 -8 0 -20 11 -27 25 -7 13 -21 27 -30 30 -9 3
-29 19 -44 35 -18 21 -35 30 -56 30 -17 0 -30 5 -30 11 0 5 -4 7 -10 4 -5 -3
-10 -1 -10 5 0 14 -25 40 -39 40 -6 0 -11 5 -11 11 0 5 -4 8 -9 5 -14 -9 -63
35 -57 50 8 20 -7 17 -37 -6z m-267 -130 c0 -5 -7 -10 -15 -10 -8 0 -15 5 -15
10 0 6 7 10 15 10 8 0 15 -4 15 -10z m-2504 -372 c14 -13 39 -42 56 -65 29
-43 30 -56 1 -28 -9 9 -23 13 -34 10 -21 -7 -23 13 -4 28 6 5 0 5 -12 2 -14
-4 -23 -2 -23 4 0 6 5 11 10 11 6 0 10 5 10 11 0 8 -4 8 -14 0 -9 -8 -16 -8
-20 -2 -4 5 -2 13 4 16 8 5 7 11 -1 21 -18 22 -2 17 27 -8z m2951 -35 c-3 -10
-5 -2 -5 17 0 19 2 27 5 18 2 -10 2 -26 0 -35z m-2760 -5 c-3 -8 -6 -5 -6 6
-1 11 2 17 5 13 3 -3 4 -12 1 -19z m-217 -28 c5 0 8 -9 7 -19 0 -11 -6 -17
-14 -14 -7 3 -13 0 -13 -6 0 -6 -7 -8 -15 -5 -25 10 -17 33 10 29 24 -2 24 -1
10 15 -8 9 -12 20 -8 24 5 4 9 1 11 -8 2 -9 7 -16 12 -16z m205 -47 c-7 -54
-25 -99 -25 -61 0 22 22 118 27 118 3 0 1 -26 -2 -57z m300 -141 c29 -81 73
-202 98 -269 24 -68 41 -120 37 -118 -5 3 -21 38 -36 78 -15 39 -62 161 -105
271 -43 109 -76 203 -72 209 9 14 18 -7 78 -171z m1279 141 c33 -15 63 -28 65
-29 4 -4 -1 -11 -202 -306 -144 -213 -202 -289 -112 -148 47 73 58 114 29 103
-13 -5 -15 -2 -9 18 23 80 153 389 163 389 2 0 32 -12 66 -27z m-1397 -115
c61 -94 94 -151 76 -133 -23 23 -153 225 -145 225 5 0 36 -42 69 -92z m1752
-54 c7 -6 -31 -44 -43 -44 -9 0 -46 68 -46 85 0 5 79 -32 89 -41z m201 -90 c0
-2 -9 0 -20 6 -11 6 -20 13 -20 16 0 2 9 0 20 -6 11 -6 20 -13 20 -16z m571
-461 c-12 -20 -14 -14 -5 12 4 9 9 14 11 11 3 -2 0 -13 -6 -23z m-2378 -533
c-3 -12 -8 -19 -11 -16 -5 6 5 36 12 36 2 0 2 -9 -1 -20z m686 -28 c-37 -42
-88 -82 -59 -47 17 21 83 84 89 85 2 0 -12 -17 -30 -38z"/>
<path d="M7305 5641 c3 -2 -11 -22 -32 -43 -20 -21 -35 -38 -32 -38 3 0 24 20
47 43 27 28 37 44 27 44 -8 0 -13 -3 -10 -6z"/>
<path d="M5408 5573 c7 -3 16 -2 19 1 4 3 -2 6 -13 5 -11 0 -14 -3 -6 -6z"/>
<path d="M7370 5530 c-13 -9 -13 -10 0 -10 8 0 22 5 30 10 13 9 13 10 0 10 -8
0 -22 -5 -30 -10z"/>
<path d="M7328 5513 c7 -3 16 -2 19 1 4 3 -2 6 -13 5 -11 0 -14 -3 -6 -6z"/>
<path d="M9530 5465 c30 -30 57 -55 59 -55 3 0 -19 25 -49 55 -30 30 -57 55
-59 55 -3 0 19 -25 49 -55z"/>
<path d="M7258 5493 c7 -3 16 -2 19 1 4 3 -2 6 -13 5 -11 0 -14 -3 -6 -6z"/>
<path d="M9750 5481 c0 -15 110 -131 124 -131 6 0 3 7 -6 14 -20 15 -24 31 -5
20 6 -4 -13 18 -43 49 -53 55 -70 67 -70 48z"/>
<path d="M9895 5415 c28 -26 61 -55 75 -64 14 -8 -4 11 -39 44 -35 33 -69 62
-75 63 -6 2 12 -17 39 -43z"/>
<path d="M9625 5360 c21 -22 41 -40 44 -40 3 0 -13 18 -34 40 -21 22 -41 40
-44 40 -3 0 13 -18 34 -40z"/>
<path d="M4840 5378 c-25 -6 -47 -11 -48 -13 -2 -2 10 -24 27 -49 33 -47 60
-53 62 -12 0 11 3 15 6 9 6 -17 20 -16 26 1 4 9 1 13 -6 11 -7 -3 -18 -1 -26
4 -19 12 -6 45 15 37 14 -5 15 -4 4 9 -7 8 -13 15 -14 14 0 -1 -21 -6 -46 -11z
m30 -12 c0 -3 -4 -8 -10 -11 -5 -3 -10 -1 -10 4 0 6 5 11 10 11 6 0 10 -2 10
-4z"/>
<path d="M4750 5320 c0 -5 5 -10 12 -10 6 0 8 -3 5 -6 -4 -4 -13 -1 -22 6 -13
11 -15 9 -15 -14 0 -24 -12 -32 -42 -27 -5 0 -8 -4 -8 -10 0 -6 -7 -8 -16 -5
-20 8 -7 -14 20 -34 27 -19 54 -21 64 -4 4 7 15 12 26 11 11 -1 20 5 22 16 2
15 0 16 -14 5 -9 -7 -14 -8 -10 -4 4 5 3 15 -4 23 -6 8 -7 13 -2 12 29 -5 34
2 18 26 -17 25 -34 33 -34 15z"/>
<path d="M9340 5320 c0 -5 11 -12 25 -16 14 -3 31 -14 38 -23 6 -9 46 -33 87
-54 41 -21 89 -46 105 -57 17 -10 56 -32 89 -48 l58 -30 -6 46 c-3 24 -6 58
-6 74 0 22 -4 29 -15 25 -8 -4 -23 5 -35 20 -11 14 -20 23 -20 19 0 -4 -7 -1
-15 7 -8 8 -46 22 -84 32 -63 15 -72 15 -92 2 -18 -14 -27 -14 -68 -1 -55 17
-61 17 -61 4z"/>
<path d="M9751 5155 c-1 -11 5 -60 13 -110 8 -49 17 -119 21 -155 9 -79 15
-93 33 -74 10 11 10 14 0 14 -6 0 -3 6 7 14 20 14 64 7 90 -14 9 -8 17 -6 29
5 9 9 16 13 17 8 2 -28 9 -66 14 -83 5 -17 10 -19 21 -9 11 9 14 7 16 -12 0
-13 0 -32 -1 -43 -1 -16 1 -17 14 -6 42 35 -15 -95 -71 -163 -14 -16 -21 -34
-17 -40 13 -21 13 -41 1 -65 -10 -18 -9 -25 0 -31 7 -4 13 -19 13 -32 0 -13
-1 -37 0 -54 0 -34 -19 -85 -32 -85 -5 0 -8 -8 -7 -17 3 -37 -2 -55 -14 -50
-8 3 -14 -6 -15 -24 -2 -28 1 -26 60 34 35 35 73 85 86 115 14 28 28 52 33 52
4 0 8 5 8 10 0 17 49 65 57 56 4 -4 2 -10 -4 -14 -19 -12 -47 -85 -31 -80 7 3
19 15 25 29 11 21 18 19 14 -4 -1 -7 44 0 62 10 19 11 5 23 -15 12 -18 -10
-20 -9 -15 5 4 9 2 16 -3 16 -6 0 -10 4 -10 9 0 6 8 8 18 6 11 -2 19 3 19 11
0 8 -5 14 -11 14 -6 0 -2 7 8 15 19 15 15 30 -7 30 -7 1 -11 7 -9 14 2 8 -11
31 -28 52 -40 50 -38 58 5 20 20 -17 43 -31 53 -31 10 0 13 3 7 8 -5 4 -10 13
-11 20 -2 29 -5 33 -16 26 -6 -4 -8 -3 -4 4 3 6 2 13 -4 17 -23 14 -8 23 23
13 44 -15 57 -27 57 -53 0 -38 50 -53 94 -28 24 13 54 6 86 -21 49 -42 -164
183 -302 319 -78 77 -134 130 -124 119 13 -17 16 -31 11 -58 -4 -20 -11 -39
-16 -41 -4 -3 -5 -13 -2 -22 4 -10 2 -14 -5 -9 -12 7 -22 64 -26 139 -2 43 -7
52 -60 106 -32 33 -65 57 -72 54 -7 -2 -20 7 -29 21 -10 14 -23 26 -30 26 -7
0 -16 6 -18 13 -3 6 -6 3 -6 -8z m159 -134 c0 -10 -13 -2 -35 23 -45 50 -45
70 0 26 19 -19 35 -41 35 -49z m330 -359 c-5 -2 -6 -11 -2 -20 5 -15 4 -15
-12 0 -9 10 -14 23 -10 29 4 7 3 9 -3 6 -6 -4 -10 4 -10 20 l0 27 23 -29 c13
-17 20 -31 14 -33z m45 -82 c3 -5 -1 -10 -9 -10 -9 0 -16 5 -16 10 0 6 4 10 9
10 6 0 13 -4 16 -10z m-257 -31 c-2 -3 2 -12 7 -20 10 -13 11 -30 7 -86 -1
-13 -9 -23 -17 -23 -8 0 -15 -7 -15 -15 0 -17 11 -19 26 -6 5 5 19 12 32 16
29 9 30 -15 0 -41 -14 -12 -19 -14 -13 -4 6 12 4 11 -10 -1 -16 -16 -18 -16
-35 1 -14 14 -17 31 -15 73 1 30 7 63 13 73 5 10 7 25 4 33 -2 7 1 12 8 10 6
-3 10 -7 8 -10z"/>
<path d="M4411 5118 c0 -31 3 -37 8 -24 7 18 3 66 -5 66 -2 0 -4 -19 -3 -42z"/>
<path d="M10077 5043 c36 -55 106 -124 116 -114 12 12 47 -4 60 -25 4 -8 14
-14 21 -14 7 0 19 -12 26 -27 7 -16 15 -23 17 -16 8 23 -40 102 -77 127 -20
13 -69 40 -109 60 l-72 37 18 -28z"/>
<path d="M10270 5030 c0 -5 5 -10 11 -10 5 0 7 5 4 10 -3 6 -8 10 -11 10 -2 0
-4 -4 -4 -10z"/>
<path d="M10370 5000 c0 -5 5 -10 11 -10 5 0 7 5 4 10 -3 6 -8 10 -11 10 -2 0
-4 -4 -4 -10z"/>
<path d="M10319 4921 c13 -12 18 -21 11 -21 -9 0 -7 -7 5 -20 20 -22 44 -28
26 -6 -8 9 -8 15 -2 18 6 1 -6 13 -27 26 -31 19 -33 20 -13 3z"/>
<path d="M6131 4868 c11 -29 30 -75 40 -103 11 -27 26 -61 35 -75 l15 -25 -7
33 c-9 51 -78 215 -92 220 -8 2 -5 -15 9 -50z"/>
<path d="M3662 4889 c-12 -5 -22 -11 -22 -15 0 -3 7 -4 15 0 8 3 15 1 15 -4 0
-13 27 -1 33 14 6 15 -10 16 -41 5z"/>
<path d="M4039 4833 c-13 -16 -12 -17 4 -4 9 7 17 15 17 17 0 8 -8 3 -21 -13z"/>
<path d="M3669 4823 c-13 -16 -12 -17 4 -4 16 13 21 21 13 21 -2 0 -10 -8 -17
-17z"/>
<path d="M9734 4792 c-58 -67 -106 -141 -100 -151 3 -5 -5 -16 -18 -25 -23
-14 -237 -258 -244 -276 -2 -5 9 -5 24 -1 16 4 55 3 88 -1 48 -7 64 -5 85 8
13 10 40 20 59 25 27 6 32 4 28 -7 -3 -8 -8 -20 -12 -28 -3 -7 6 -20 20 -29
21 -14 30 -15 76 -3 74 19 52 5 -90 -60 -69 -31 -127 -58 -129 -60 -2 -2 11
-10 30 -17 37 -15 244 -18 267 -4 6 5 17 5 22 2 6 -4 10 7 10 26 0 28 -3 31
-22 25 -13 -4 -62 -9 -109 -13 -94 -6 -121 5 -72 30 37 19 167 29 182 14 8 -8
11 -2 11 25 0 61 -56 557 -64 565 -1 1 -20 -19 -42 -45z"/>
<path d="M3906 4803 c-6 -14 -5 -15 5 -6 7 7 10 15 7 18 -3 3 -9 -2 -12 -12z"/>
<path d="M4366 4707 c-3 -12 -7 -51 -10 -87 -5 -56 -4 -62 8 -47 7 9 21 17 30
17 20 0 31 24 20 48 -8 20 -8 20 0 48 5 16 0 23 -19 32 -22 10 -25 9 -29 -11z"/>
<path d="M6226 4647 c3 -10 9 -15 12 -12 3 3 0 11 -7 18 -10 9 -11 8 -5 -6z"/>
<path d="M5817 4528 c-51 -144 -59 -178 -41 -171 8 3 14 -1 14 -9 0 -8 14 -27
31 -42 26 -23 33 -25 47 -14 11 9 14 10 8 1 -4 -9 -1 -13 9 -13 13 0 16 -6 11
-24 -6 -26 8 -45 18 -24 5 10 7 10 12 1 3 -7 12 -13 20 -13 8 0 14 -5 14 -10
0 -19 37 -52 45 -40 6 10 -130 436 -145 453 -4 5 -24 -38 -43 -95z"/>
<path d="M3491 4574 c0 -11 3 -14 6 -6 3 7 2 16 -1 19 -3 4 -6 -2 -5 -13z"/>
<path d="M3450 4555 c0 -8 7 -15 16 -15 8 0 12 -4 9 -10 -3 -5 -2 -10 4 -10
20 0 22 22 2 27 -11 3 -18 9 -15 14 3 5 0 9 -5 9 -6 0 -11 -7 -11 -15z"/>
<path d="M10653 4523 c-7 -2 -9 -11 -6 -20 5 -12 1 -14 -15 -8 -13 4 -22 2
-22 -4 0 -6 10 -11 21 -11 16 0 20 -5 16 -19 -3 -15 0 -19 15 -18 15 1 18 7
13 24 -6 24 9 32 18 11 4 -10 8 -9 16 2 14 20 9 34 -14 38 -12 3 -15 0 -10
-10 3 -7 1 -6 -7 3 -7 9 -18 14 -25 12z"/>
<path d="M4302 4476 c-17 -17 -20 -24 -10 -34 19 -19 26 -15 33 19 9 39 5 41
-23 15z"/>
<path d="M10482 4491 c-9 -5 -7 -12 8 -26 24 -22 25 -31 3 -39 -10 -4 -14 -4
-10 0 4 4 2 13 -4 20 -9 11 -16 10 -39 -6 -15 -11 -29 -18 -31 -16 -2 2 -25 1
-51 -3 -26 -4 -45 -4 -42 1 3 4 1 8 -5 8 -15 0 -23 -18 -11 -25 6 -4 8 -10 5
-15 -8 -13 49 -22 77 -11 14 5 29 7 33 3 3 -3 10 -1 14 6 10 17 41 4 40 -17 0
-11 -2 -12 -6 -3 -4 10 -11 8 -29 -9 -13 -12 -24 -26 -24 -31 0 -20 -45 -68
-64 -68 -16 0 -18 -2 -7 -9 12 -8 12 -12 -2 -25 -20 -20 -31 -21 -24 -2 4 10
1 13 -9 9 -11 -4 -19 -34 -16 -64 1 -11 -33 -6 -49 8 -13 11 -22 11 -45 3 -16
-6 -30 -11 -32 -10 -8 5 -62 -13 -62 -21 0 -5 -5 -9 -11 -9 -5 0 -7 5 -4 10 3
6 1 10 -4 10 -19 0 -12 -27 8 -33 12 -3 22 1 26 12 6 14 8 14 18 1 14 -18 127
-27 127 -11 0 6 5 11 10 11 16 0 12 -15 -10 -40 -11 -13 -18 -25 -16 -28 8 -8
68 17 118 49 44 29 47 33 31 45 -17 13 -17 13 0 14 9 0 17 5 17 10 0 6 7 10
15 10 26 0 16 15 -11 16 -14 1 -28 5 -31 8 -6 6 37 45 50 46 16 0 49 39 42 50
-4 6 -1 17 5 25 7 8 10 23 8 33 -4 16 -1 18 21 14 23 -5 25 -4 12 12 -8 9 -10
20 -6 24 4 4 10 1 12 -5 3 -7 9 -13 15 -13 5 0 0 12 -11 26 -12 15 -21 33 -21
40 0 17 -13 24 -28 15z m-122 -326 c-7 -8 -16 -15 -21 -15 -5 0 -9 7 -9 15 0
9 9 15 21 15 18 0 19 -2 9 -15z m-40 -25 c0 -5 -4 -10 -10 -10 -5 0 -10 5 -10
10 0 6 5 10 10 10 6 0 10 -4 10 -10z"/>
<path d="M5022 4360 c-106 -54 -213 -105 -239 -113 l-46 -15 29 23 28 23 -53
70 c-53 69 -96 97 -111 72 -5 -9 -9 -9 -14 -1 -4 6 -12 11 -17 11 -6 0 -7 -4
-4 -10 3 -5 0 -10 -7 -10 -7 0 -18 -10 -23 -22 -8 -17 -19 -22 -50 -23 -42 -1
-138 27 -162 46 -7 7 -15 10 -18 8 -3 -4 -35 -342 -35 -375 0 -7 10 -9 25 -6
14 2 25 11 25 18 0 14 3 15 52 18 15 1 35 10 46 19 10 9 25 17 33 17 23 1 53
27 37 33 -24 8 1 19 45 21 24 0 51 7 59 13 20 17 89 45 95 39 2 -2 -5 -7 -17
-11 -12 -4 -20 -11 -18 -15 2 -5 35 -44 74 -87 38 -43 81 -93 94 -110 13 -18
27 -33 31 -33 11 0 59 45 59 55 0 5 6 16 13 24 17 19 117 289 117 313 0 23 20
34 31 17 8 -13 13 -5 9 16 -1 6 7 1 18 -10 10 -11 16 -21 11 -23 -17 -7 4 -31
32 -37 17 -4 26 -11 23 -17 -4 -6 -3 -8 3 -5 19 12 36 94 27 130 l-9 35 -193
-98z"/>
<path d="M10640 4404 c0 -8 6 -11 18 -7 14 5 15 3 5 -8 -7 -7 -13 -17 -13 -23
0 -10 29 24 30 35 0 4 -9 9 -20 12 -13 3 -20 0 -20 -9z"/>
<path d="M9100 4367 c17 -13 40 -91 40 -135 0 -15 9 -46 20 -70 15 -33 24 -42
37 -38 10 3 35 6 56 8 25 1 37 7 37 17 0 8 3 11 7 8 9 -10 33 13 33 33 0 14
39 61 41 49 0 -2 3 -13 6 -24 3 -11 5 -32 6 -47 0 -16 4 -25 10 -21 6 4 8 0 4
-10 -10 -28 6 -19 36 18 l27 34 -22 14 c-126 77 -274 155 -323 168 -24 7 -27
6 -15 -4z"/>
<path d="M10602 4358 c7 -13 14 -25 15 -27 1 -1 7 0 13 4 8 5 5 13 -9 26 -27
25 -34 24 -19 -3z"/>
<path d="M9865 4341 c-8 -38 4 -163 15 -156 9 6 7 171 -2 180 -3 4 -9 -7 -13
-24z"/>
<path d="M3696 4313 c11 -10 31 -27 44 -38 24 -20 24 -20 10 0 -20 26 -53 54
-64 55 -6 0 -1 -8 10 -17z"/>
<path d="M5220 4307 c0 -8 7 -18 16 -21 11 -4 14 -1 12 11 -4 21 -28 30 -28
10z"/>
<path d="M10160 4308 c0 -4 6 -8 14 -8 8 0 17 4 20 8 2 4 -4 8 -15 8 -10 0
-19 -4 -19 -8z"/>
<path d="M3514 4288 c3 -13 8 -41 11 -63 3 -22 10 -41 15 -43 6 -2 10 -11 10
-20 0 -15 2 -15 10 -2 7 11 10 12 10 2 0 -9 8 -11 23 -8 12 3 16 3 10 0 -7 -3
-13 -13 -13 -21 0 -13 -3 -13 -15 -3 -26 22 -29 3 -4 -29 21 -27 44 -36 67
-28 10 3 3 69 -9 82 -15 15 -10 28 6 15 12 -10 15 -10 15 4 0 24 -4 31 -17 30
-7 -1 -12 1 -11 5 2 18 -3 24 -11 12 -12 -19 -34 -2 -50 37 -6 15 -21 33 -32
40 -18 11 -19 10 -15 -10z m96 -98 c0 -5 -2 -10 -4 -10 -3 0 -8 5 -11 10 -3 6
-1 10 4 10 6 0 11 -4 11 -10z"/>
<path d="M4210 4258 c1 -38 2 -41 14 -25 14 18 10 67 -5 67 -5 0 -9 -19 -9
-42z"/>
<path d="M10535 4283 c-37 -6 -64 -29 -62 -54 2 -27 9 -24 58 21 24 21 42 39
39 38 -3 -1 -18 -3 -35 -5z"/>
<path d="M10535 4233 c-33 -30 -50 -50 -38 -42 17 10 24 10 37 0 22 -18 66 27
66 69 0 16 -1 30 -2 30 -2 -1 -30 -26 -63 -57z"/>
<path d="M3690 4260 c0 -5 10 -10 23 -10 18 0 19 2 7 10 -19 13 -30 13 -30 0z"/>
<path d="M10050 4249 c0 -16 4 -19 23 -14 12 4 27 12 32 17 7 7 3 8 -12 3 -14
-4 -23 -2 -23 4 0 6 -4 11 -10 11 -5 0 -10 -9 -10 -21z"/>
<path d="M3735 4240 c-3 -5 1 -10 10 -10 9 0 13 5 10 10 -3 6 -8 10 -10 10 -2
0 -7 -4 -10 -10z"/>
<path d="M10461 4180 c-1 -3 -4 -20 -6 -38 -2 -22 -14 -45 -34 -64 -18 -17
-30 -37 -27 -45 3 -7 0 -12 -6 -10 -6 1 -12 -3 -15 -10 -6 -17 39 -3 115 37
60 31 84 50 63 50 -5 0 -13 -5 -17 -11 -3 -6 -15 -9 -25 -6 -10 3 -17 0 -16
-5 1 -6 -3 -12 -10 -15 -8 -3 -13 15 -16 59 -2 35 -4 61 -6 58z"/>
<path d="M3704 4135 c4 -14 2 -25 -3 -25 -5 0 -11 -14 -13 -31 -5 -32 8 -43
63 -51 20 -2 23 1 21 19 -3 18 1 22 15 17 17 -5 17 -5 1 8 -9 8 -18 21 -20 28
-3 15 -51 60 -63 60 -4 0 -4 -11 -1 -25z"/>
<path d="M8136 4143 c-6 -14 -5 -15 5 -6 7 7 10 15 7 18 -3 3 -9 -2 -12 -12z"/>
<path d="M10035 4140 c-3 -5 -2 -10 4 -10 5 0 13 5 16 10 3 6 2 10 -4 10 -5 0
-13 -4 -16 -10z"/>
<path d="M10410 4135 c-7 -9 -11 -18 -8 -20 3 -3 11 1 18 10 7 9 11 18 8 20
-3 3 -11 -1 -18 -10z"/>
<path d="M4541 4121 l-23 -18 28 -20 c51 -36 144 -49 144 -20 0 12 -100 77
-117 77 -4 0 -19 -9 -32 -19z"/>
<path d="M4230 4111 c0 -5 5 -13 10 -16 6 -3 10 -2 10 4 0 5 -4 13 -10 16 -5
3 -10 2 -10 -4z"/>
<path d="M9805 4075 c-16 -7 -29 -16 -28 -20 1 -4 19 -16 41 -25 l39 -18 1 39
c2 43 -4 46 -53 24z"/>
<path d="M3834 4033 c1 -42 4 -48 31 -59 l30 -12 -1 51 c-1 40 -6 53 -20 58
-37 15 -41 10 -40 -38z"/>
<path d="M4421 4056 c-47 -24 -47 -24 14 -56 17 -9 70 -40 119 -68 49 -29 92
-52 96 -52 14 0 -15 66 -43 99 -15 18 -27 37 -27 42 0 5 -6 9 -14 9 -8 0 -16
3 -18 8 -4 9 -63 42 -75 42 -4 -1 -28 -11 -52 -24z"/>
<path d="M10288 4067 c-26 -12 -26 -13 -12 -46 12 -30 16 -32 32 -20 14 11 13
9 -2 -9 -19 -22 -13 -29 13 -13 20 13 22 51 2 51 -12 0 -12 3 -3 12 13 13 16
38 5 38 -5 -1 -20 -6 -35 -13z"/>
<path d="M4260 4046 c0 -9 5 -16 10 -16 6 0 10 4 10 9 0 6 -4 13 -10 16 -5 3
-10 -1 -10 -9z"/>
<path d="M4160 4041 c0 -9 30 -24 36 -18 2 1 -6 8 -16 15 -11 7 -20 8 -20 3z"/>
<path d="M8170 4020 c9 -16 8 -20 -5 -20 -8 0 -15 5 -15 12 0 6 -7 3 -16 -8
-14 -17 -15 -17 -10 -1 3 11 2 16 -4 12 -6 -3 -10 -12 -10 -20 0 -7 -7 -15
-15 -19 -8 -3 -15 -12 -15 -19 0 -8 -7 -20 -14 -27 -18 -14 -111 -249 -107
-269 1 -8 -2 -10 -10 -5 -9 5 -11 1 -7 -14 4 -12 3 -20 -2 -17 -7 4 -20 -17
-20 -32 0 -9 152 7 260 29 77 15 118 29 155 53 67 43 135 101 128 109 -4 3 1
6 11 6 9 0 14 5 11 10 -3 6 1 10 9 10 9 0 16 5 16 10 0 6 8 10 18 10 9 1 28 9
40 20 24 20 24 20 7 65 -18 46 -32 61 -22 24 3 -12 3 -18 0 -15 -4 3 -12 1
-20 -5 -7 -7 -28 -9 -47 -6 -22 4 -37 1 -40 -6 -3 -9 -5 -9 -5 1 -1 6 -9 12
-20 12 -10 0 -24 7 -31 15 -10 12 -16 13 -26 4 -11 -9 -14 -8 -14 0 0 7 -4 9
-10 6 -5 -3 -20 1 -33 10 -13 8 -27 12 -31 8 -4 -5 -14 1 -22 11 -11 16 -17
17 -26 8 -15 -15 -62 -16 -53 -2 4 6 10 8 14 5 5 -2 6 6 4 20 -3 13 -11 26
-19 29 -12 4 -12 2 -4 -14z"/>
<path d="M10155 4035 c-5 -2 -36 -11 -68 -20 -55 -16 -58 -19 -52 -42 4 -18 3
-23 -7 -17 -10 6 -10 5 -2 -7 7 -8 8 -22 3 -34 -12 -31 -10 -39 6 -25 12 10
15 10 15 -2 0 -8 -5 -19 -12 -26 -9 -9 -9 -15 0 -24 9 -9 20 -4 47 22 33 32
34 36 29 87 -6 49 -5 53 17 62 25 9 26 8 44 -44 l7 -20 8 20 c13 30 12 35 -6
35 -11 0 -15 6 -11 20 5 20 2 22 -18 15z"/>
<path d="M10229 4018 c-1 -7 -1 -19 0 -27 2 -8 -2 -10 -10 -5 -8 5 -11 2 -6
-8 3 -9 0 -21 -6 -27 -8 -8 -7 -11 5 -11 22 0 31 16 33 57 1 30 -13 49 -16 21z"/>
<path d="M4218 4013 c7 -3 16 -2 19 1 4 3 -2 6 -13 5 -11 0 -14 -3 -6 -6z"/>
<path d="M4190 3988 c0 -7 9 -19 20 -26 11 -7 20 -19 20 -28 0 -10 6 -14 14
-11 8 3 17 1 20 -6 2 -7 5 0 5 14 1 33 -17 56 -51 65 -20 4 -28 2 -28 -8z"/>
<path d="M4310 3945 c0 -13 6 -26 13 -28 8 -4 8 -8 2 -14 -5 -4 -11 -19 -13
-32 -1 -14 1 -21 5 -18 11 11 41 -53 35 -75 -3 -11 -10 -17 -18 -14 -10 4 -14
-3 -14 -19 0 -14 6 -25 13 -25 16 1 124 28 115 29 -4 1 -4 11 1 24 5 12 11 45
15 73 l6 51 -80 36 -80 36 0 -24z m73 -30 c4 -8 2 -17 -3 -20 -6 -4 -10 3 -10
14 0 25 6 27 13 6z"/>
<path d="M8746 3933 c-6 -14 -5 -15 5 -6 7 7 10 15 7 18 -3 3 -9 -2 -12 -12z"/>
<path d="M10160 3941 c0 -5 7 -12 16 -15 14 -5 15 -4 4 9 -14 17 -20 19 -20 6z"/>
<path d="M4697 3799 c7 -7 15 -10 18 -7 3 3 -2 9 -12 12 -14 6 -15 5 -6 -5z"/>
<path d="M4325 3790 c-3 -5 -1 -10 4 -10 6 0 11 5 11 10 0 6 -2 10 -4 10 -3 0
-8 -4 -11 -10z"/>
<path d="M6940 3796 c0 -2 8 -10 18 -17 15 -13 16 -12 3 4 -13 16 -21 21 -21
13z"/>
<path d="M8575 3789 c-11 -17 1 -21 15 -4 8 9 8 15 2 15 -6 0 -14 -5 -17 -11z"/>
<path d="M4755 3776 c17 -8 35 -15 42 -16 21 0 24 -19 7 -45 -14 -21 -24 -26
-53 -25 -75 4 -96 -3 -36 -10 128 -17 515 -121 766 -206 9 -3 16 0 16 8 1 7 4
57 8 110 l8 97 -34 5 c-48 9 -79 4 -79 -11 0 -7 -5 -13 -11 -13 -6 0 -9 6 -6
14 7 17 -41 24 -213 31 -160 7 -265 21 -347 46 -94 29 -101 31 -68 15z m141
-71 c4 -14 4 -29 0 -32 -7 -8 -35 27 -36 45 0 23 30 12 36 -13z m502 -87 c1
-18 5 -40 7 -49 3 -9 -1 -16 -9 -16 -11 0 -14 13 -13 49 2 54 12 65 15 16z"/>
<path d="M8526 3768 c5 -8 2 -9 -10 -5 -10 4 -15 3 -11 -3 3 -6 -1 -10 -9 -10
-8 0 -28 -11 -43 -25 l-28 -25 28 10 c15 5 44 21 63 34 27 18 32 25 19 30 -11
4 -14 2 -9 -6z"/>
<path d="M8560 3730 c0 -5 7 -7 15 -4 8 4 15 8 15 10 0 2 -7 4 -15 4 -8 0 -15
-4 -15 -10z"/>
<path d="M9828 3733 c7 -3 16 -2 19 1 4 3 -2 6 -13 5 -11 0 -14 -3 -6 -6z"/>
<path d="M9887 3716 c-44 -27 -87 -66 -87 -79 0 -5 17 5 38 22 106 86 117 99
49 57z"/>
<path d="M9010 3620 c0 -5 5 -10 10 -10 6 0 10 5 10 10 0 6 -4 10 -10 10 -5 0
-10 -4 -10 -10z"/>
<path d="M9730 3587 c-22 -19 -74 -77 -69 -77 3 0 25 20 49 45 42 43 52 59 20
32z"/>
<path d="M6160 3557 c-43 -11 -46 -14 -53 -54 l-6 -33 54 0 c41 0 56 4 64 18
6 9 11 11 11 5 0 -17 40 -16 62 1 25 19 12 53 -24 61 -50 11 -72 12 -108 2z"/>
<path d="M7256 3552 c-4 -13 -5 -26 -2 -29 10 -11 18 4 14 29 l-4 23 -8 -23z"/>
<path d="M6316 3541 c-3 -5 1 -11 9 -15 8 -3 15 -1 15 4 0 13 -18 22 -24 11z"/>
<path d="M8775 3480 c-44 -16 -75 -29 -69 -29 12 -1 155 46 162 54 10 10 -13
3 -93 -25z"/>
<path d="M7687 3443 c-32 -4 -35 -6 -23 -19 16 -16 51 -19 41 -4 -3 6 1 10 9
10 9 0 16 5 16 10 0 6 -1 9 -2 8 -2 -1 -20 -3 -41 -5z"/>
<path d="M7744 3441 c3 -5 15 -7 26 -4 28 7 25 13 -6 13 -14 0 -23 -4 -20 -9z"/>
<path d="M5727 3429 c7 -7 15 -10 18 -7 3 3 -2 9 -12 12 -14 6 -15 5 -6 -5z"/>
<path d="M7440 3405 c-179 -31 -322 -63 -333 -74 -9 -9 -1 -69 13 -90 5 -8 13
-10 21 -5 7 4 27 9 44 11 54 5 145 44 145 62 0 11 3 13 8 4 6 -10 32 -5 110
19 56 17 100 34 98 37 -2 3 10 7 27 8 17 1 35 8 41 14 8 9 5 10 -11 6 -13 -3
-23 -1 -23 4 0 9 14 13 37 10 6 -1 14 3 18 9 9 15 -44 11 -195 -15z"/>
<path d="M5701 3367 c-6 -8 -8 -17 -4 -20 3 -4 1 -7 -6 -7 -9 0 -9 -4 1 -14
16 -18 32 2 16 21 -8 10 -4 15 13 22 16 6 18 10 8 10 -9 1 -22 -5 -28 -12z"/>
<path d="M9266 3025 c-10 -8 -23 -12 -29 -8 -6 3 -7 1 -3 -6 4 -6 -3 -26 -15
-44 -18 -26 -13 -23 27 15 47 46 59 71 20 43z"/>
<path d="M9504 3009 c-19 -22 -19 -22 4 -8 12 8 22 17 22 21 0 12 -6 9 -26
-13z"/>
<path d="M9090 2708 l-23 -31 23 16 c13 9 25 23 26 32 3 21 1 19 -26 -17z"/>
<path d="M8555 2040 c-16 -16 -25 -30 -21 -30 8 0 22 13 45 43 22 27 7 20 -24
-13z"/>
<path d="M8458 2688 c-44 -20 -62 -38 -38 -38 6 0 10 5 10 11 0 6 6 9 13 6 13
-5 67 23 67 35 0 10 4 11 -52 -14z"/>
<path d="M8310 2625 c-14 -8 -48 -22 -77 -31 -45 -14 -72 -38 -59 -51 4 -5 68
25 139 65 20 12 40 21 43 21 3 0 8 2 12 5 11 12 -34 5 -58 -9z"/>
<path d="M8318 2555 c-3 -3 -21 -7 -39 -10 -60 -6 -72 -11 -75 -28 -3 -21 0
-21 59 1 40 16 82 42 66 42 -3 0 -8 -2 -11 -5z"/>
<path d="M8116 2444 c-6 -15 -4 -15 11 -3 10 7 20 15 22 16 2 2 -3 3 -11 3 -9
0 -19 -7 -22 -16z"/>
<path d="M4605 3040 c10 -11 20 -20 23 -20 3 0 -3 9 -13 20 -10 11 -20 20 -23
20 -3 0 3 -9 13 -20z"/>
<path d="M6056 2319 c22 -25 69 -51 77 -43 12 12 -7 35 -40 49 -49 21 -59 19
-37 -6z"/>
<path d="M6011 2059 c31 -31 62 -70 70 -88 8 -17 17 -31 21 -31 5 0 8 -7 8
-15 0 -8 15 -21 34 -29 21 -9 45 -31 61 -55 14 -23 29 -41 34 -41 4 0 17 -8
28 -17 21 -19 27 -53 9 -53 -7 0 -7 -3 -1 -8 6 -4 17 -16 25 -26 14 -18 13
-19 -2 -13 -11 4 -18 2 -18 -6 0 -7 43 -44 96 -82 115 -83 224 -163 242 -178
20 -16 -1 32 -51 115 -34 56 -83 110 -208 228 -209 198 -480 431 -348 299z"/>
<path d="M7030 1644 c0 -12 38 -63 43 -57 15 14 6 39 -18 50 -14 6 -25 9 -25
7z"/>
<path d="M7863 1614 c-58 -29 -142 -99 -107 -89 36 9 177 89 182 103 6 18 -17
14 -75 -14z"/>
<path d="M6330 1586 c0 -2 7 -7 16 -10 8 -3 12 -2 9 4 -6 10 -25 14 -25 6z"/>
<path d="M6425 1501 c0 -20 4 -42 9 -49 4 -7 4 -12 -1 -10 -4 1 -23 -2 -40 -6
-24 -5 -33 -13 -33 -27 0 -16 -5 -19 -22 -14 -14 3 32 -47 109 -122 73 -70
192 -189 264 -263 71 -74 127 -129 124 -122 -9 18 3 15 32 -8 14 -11 34 -20
45 -20 10 0 31 -12 45 -27 l27 -28 -23 40 c-13 22 -37 64 -53 93 -17 29 -34
49 -40 45 -7 -3 -8 -1 -4 5 9 15 -108 216 -138 235 -24 16 -58 76 -63 112 -4
26 -99 114 -177 163 l-61 38 0 -35z m472 -570 c15 -19 17 -34 3 -26 -6 4 -7
-1 -3 -11 4 -12 2 -15 -8 -12 -8 3 -14 11 -14 19 0 8 -6 24 -13 36 -11 20 -11
22 5 16 10 -4 23 -14 30 -22z m36 -55 c4 -10 1 -13 -9 -9 -7 3 -14 9 -14 14 0
14 17 10 23 -5z"/>
<path d="M7085 900 c-3 -5 -2 -10 4 -10 5 0 13 5 16 10 3 6 2 10 -4 10 -5 0
-13 -4 -16 -10z"/>
<path d="M7243 868 c-20 -26 -22 -35 -8 -35 7 0 15 11 18 24 5 26 3 28 -10 11z"/>
<path d="M6151 324 c-38 -31 -47 -48 -60 -102 -8 -39 -8 -41 10 -31 11 5 33
29 50 52 17 23 39 45 50 49 14 6 17 12 10 30 -12 32 -24 32 -60 2z"/>
</g>
</svg>
